<?xml version="1.0" encoding="utf-8" standalone="no"?>
<!DOCTYPE svg PUBLIC "-//W3C//DTD SVG 1.1//EN"
  "http://www.w3.org/Graphics/SVG/1.1/DTD/svg11.dtd">
<svg height="230.4pt" version="1.1" viewBox="0 0 360 230.4" width="360pt" xmlns="http://www.w3.org/2000/svg" xmlns:xlink="http://www.w3.org/1999/xlink">
 <metadata>
  <rdf:RDF xmlns:cc="http://creativecommons.org/ns#" xmlns:dc="http://purl.org/dc/elements/1.1/" xmlns:rdf="http://www.w3.org/1999/02/22-rdf-syntax-ns#">
   <cc:Work>
    <dc:type rdf:resource="http://purl.org/dc/dcmitype/StillImage"/>
    <dc:date>2021-12-08T18:08:57.870583</dc:date>
    <dc:format>image/svg+xml</dc:format>
    <dc:creator>
     <cc:Agent>
      <dc:title>Matplotlib v3.4.2, https://matplotlib.org/</dc:title>
     </cc:Agent>
    </dc:creator>
   </cc:Work>
  </rdf:RDF>
 </metadata>
 <defs>
  <style type="text/css">*{stroke-linecap:butt;stroke-linejoin:round;}</style>
 </defs>
 <g id="figure_1">
  <g id="patch_1">
   <path d="M 0 230.4 
L 360 230.4 
L 360 0 
L 0 0 
z
" style="fill:none;"/>
  </g>
  <g id="axes_1">
   <g id="patch_2">
    <path d="M 50.8 202.6 
L 347.459896 202.6 
L 347.459896 10.8 
L 50.8 10.8 
z
" style="fill:#ffffff;"/>
   </g>
   <g id="PolyCollection_1">
    <path clip-path="url(#pcf54915caa)" d="M 62.616796 147.078947 
L 62.616796 147.078947 
L 63.532026 147.078947 
L 64.388209 147.078947 
L 65.303438 147.078947 
L 66.189144 147.078947 
L 67.104374 147.078947 
L 67.99008 147.078947 
L 68.90531 147.078947 
L 69.82054 147.078947 
L 70.706246 147.078947 
L 71.621476 147.078947 
L 72.507182 147.078947 
L 73.422411 147.078947 
L 74.337641 147.078947 
L 75.1643 147.078947 
L 76.07953 147.078947 
L 76.965236 147.078947 
L 77.880466 147.078947 
L 78.766172 147.078947 
L 79.681402 147.078947 
L 80.596631 147.078947 
L 81.482337 147.078947 
L 82.397567 147.078947 
L 83.283273 147.078947 
L 84.198503 147.078947 
L 85.113733 147.078947 
L 85.940392 147.078947 
L 86.855621 147.078947 
L 87.741328 147.078947 
L 88.656557 147.078947 
L 89.542263 147.078947 
L 90.457493 147.078947 
L 91.372723 147.078947 
L 92.258429 147.078947 
L 93.173659 147.078947 
L 94.059365 147.078947 
L 94.974595 147.078947 
L 95.889824 147.078947 
L 96.716483 147.078947 
L 97.631713 147.078947 
L 98.517419 147.078947 
L 99.432649 147.078947 
L 100.318355 147.078947 
L 101.233585 147.078947 
L 102.148814 147.078947 
L 103.034521 147.078947 
L 103.94975 147.078947 
L 104.835456 147.078947 
L 105.750686 147.078947 
L 106.665916 147.078947 
L 107.522098 147.078947 
L 108.437328 147.078947 
L 109.323034 147.078947 
L 110.238264 147.078947 
L 111.12397 147.078947 
L 112.0392 147.078947 
L 112.954429 147.078947 
L 113.840136 147.078947 
L 114.755365 147.078947 
L 115.641071 147.078947 
L 116.556301 147.078947 
L 117.471531 147.078947 
L 118.29819 147.078947 
L 119.21342 147.078947 
L 120.099126 147.078947 
L 121.014356 147.078947 
L 121.900062 147.078947 
L 122.815291 147.078947 
L 123.730521 147.078947 
L 124.616227 147.078947 
L 125.531457 147.078947 
L 126.417163 147.078947 
L 127.332393 147.078947 
L 128.247622 147.078947 
L 129.074282 147.078947 
L 129.989511 147.078947 
L 130.875217 147.078947 
L 131.790447 147.078947 
L 132.676153 147.078947 
L 133.591383 147.078947 
L 134.506613 147.078947 
L 135.392319 147.078947 
L 136.307548 147.078947 
L 137.193255 147.078947 
L 138.108484 147.078947 
L 139.023714 147.078947 
L 139.850373 147.078947 
L 140.765603 147.078947 
L 141.651309 147.078947 
L 142.566539 147.078947 
L 143.452245 147.078947 
L 144.367474 147.078947 
L 145.282704 147.078947 
L 146.16841 147.078947 
L 147.08364 147.078947 
L 147.969346 147.078947 
L 148.884576 147.078947 
L 149.799806 147.078947 
L 150.655988 147.078947 
L 151.571218 147.078947 
L 152.456924 147.078947 
L 153.372154 147.078947 
L 154.25786 147.078947 
L 155.17309 147.078947 
L 156.088319 147.078947 
L 156.974025 147.078947 
L 157.889255 147.078947 
L 158.774961 147.078947 
L 159.690191 147.078947 
L 160.605421 147.078947 
L 161.43208 147.078947 
L 162.347309 147.078947 
L 163.233016 147.078947 
L 164.148245 147.078947 
L 165.033951 147.078947 
L 165.949181 147.078947 
L 166.864411 147.078947 
L 167.750117 147.078947 
L 168.665347 147.078947 
L 169.551053 147.078947 
L 170.466283 147.078947 
L 171.381512 147.078947 
L 172.208171 147.078947 
L 173.123401 147.078947 
L 174.009107 147.078947 
L 174.924337 147.078947 
L 175.810043 147.078947 
L 176.725273 147.078947 
L 177.640502 147.078947 
L 178.526209 147.078947 
L 179.441438 147.078947 
L 180.327144 147.078947 
L 181.242374 147.078947 
L 182.157604 147.078947 
L 182.984263 147.078947 
L 183.899493 147.078947 
L 184.785199 147.078947 
L 185.700428 147.078947 
L 186.586135 147.078947 
L 187.501364 147.078947 
L 188.416594 147.078947 
L 189.3023 147.078947 
L 190.21753 147.078947 
L 191.103236 147.078947 
L 192.018466 147.078947 
L 192.933695 147.078947 
L 193.789878 147.078947 
L 194.705108 147.078947 
L 195.590814 147.078947 
L 196.506044 147.078947 
L 197.39175 147.078947 
L 198.306979 147.078947 
L 199.222209 147.078947 
L 200.107915 147.078947 
L 201.023145 147.078947 
L 201.908851 147.078947 
L 202.824081 147.078947 
L 203.73931 147.078947 
L 204.56597 147.078947 
L 205.481199 147.078947 
L 206.366905 147.078947 
L 207.282135 147.078947 
L 208.167841 147.078947 
L 209.083071 147.078947 
L 209.998301 147.078947 
L 210.884007 147.078947 
L 211.799236 147.078947 
L 212.684943 147.078947 
L 213.600172 147.078947 
L 214.515402 147.078947 
L 215.342061 147.078947 
L 216.257291 147.078947 
L 217.142997 147.078947 
L 218.058227 147.078947 
L 218.943933 147.078947 
L 219.859162 147.078947 
L 220.774392 147.078947 
L 221.660098 147.078947 
L 222.575328 147.078947 
L 223.461034 147.078947 
L 224.376264 147.078947 
L 225.291494 147.078947 
L 226.118153 147.078947 
L 227.033382 147.078947 
L 227.919089 147.078947 
L 228.834318 147.078947 
L 229.720024 147.078947 
L 230.635254 147.078947 
L 231.550484 147.078947 
L 232.43619 147.078947 
L 233.35142 147.078947 
L 234.237126 147.078947 
L 235.152355 147.078947 
L 236.067585 147.078947 
L 236.923768 147.078947 
L 237.838997 147.078947 
L 238.724704 147.078947 
L 239.639933 147.078947 
L 240.525639 147.078947 
L 241.440869 147.078947 
L 242.356099 147.078947 
L 243.241805 147.078947 
L 244.157035 147.078947 
L 245.042741 147.078947 
L 245.957971 147.078947 
L 246.8732 147.078947 
L 247.699859 147.078947 
L 248.615089 147.078947 
L 249.500795 147.078947 
L 250.416025 147.078947 
L 251.301731 147.078947 
L 252.216961 147.078947 
L 253.13219 147.078947 
L 254.017897 147.078947 
L 254.933126 147.078947 
L 255.818832 147.078947 
L 256.734062 147.078947 
L 257.649292 147.078947 
L 258.475951 147.078947 
L 259.391181 147.078947 
L 260.276887 147.078947 
L 261.192116 147.078947 
L 262.077823 147.078947 
L 262.993052 147.078947 
L 263.908282 147.078947 
L 264.793988 147.078947 
L 265.709218 147.078947 
L 266.594924 147.078947 
L 267.510154 147.078947 
L 268.425383 147.078947 
L 269.252042 147.078947 
L 270.167272 147.078947 
L 271.052978 147.078947 
L 271.968208 147.078947 
L 272.853914 147.078947 
L 273.769144 147.078947 
L 274.684374 147.078947 
L 275.57008 147.078947 
L 276.485309 147.078947 
L 277.371016 147.078947 
L 278.286245 147.078947 
L 279.201475 147.078947 
L 280.057658 147.078947 
L 280.972887 147.078947 
L 281.858593 147.078947 
L 282.773823 147.078947 
L 283.659529 147.078947 
L 284.574759 147.078947 
L 285.489989 147.078947 
L 286.375695 147.078947 
L 287.290924 147.078947 
L 288.176631 147.078947 
L 289.09186 147.078947 
L 290.00709 147.078947 
L 290.833749 147.078947 
L 291.748979 147.078947 
L 292.634685 147.078947 
L 293.549915 147.078947 
L 294.435621 147.078947 
L 295.350851 147.078947 
L 296.26608 147.078947 
L 297.151786 147.078947 
L 298.067016 147.078947 
L 298.952722 147.078947 
L 298.952722 141.400658 
L 298.952722 141.400658 
L 298.067016 141.484781 
L 297.151786 141.568904 
L 296.26608 141.653026 
L 295.350851 141.695088 
L 294.435621 141.737149 
L 293.549915 141.779211 
L 292.634685 141.821272 
L 291.748979 141.863333 
L 290.833749 141.905395 
L 290.00709 141.947456 
L 289.09186 141.989518 
L 288.176631 142.031579 
L 287.290924 142.07364 
L 286.375695 142.115702 
L 285.489989 142.157763 
L 284.574759 142.199825 
L 283.659529 142.241886 
L 282.773823 142.283947 
L 281.858593 142.326009 
L 280.972887 142.36807 
L 280.057658 142.410132 
L 279.201475 142.452193 
L 278.286245 142.494254 
L 277.371016 142.536316 
L 276.485309 142.578377 
L 275.57008 142.620439 
L 274.684374 142.6625 
L 273.769144 142.704561 
L 272.853914 142.746623 
L 271.968208 142.788684 
L 271.052978 142.830746 
L 270.167272 142.872807 
L 269.252042 142.914868 
L 268.425383 142.95693 
L 267.510154 142.998991 
L 266.594924 143.041053 
L 265.709218 143.083114 
L 264.793988 143.125175 
L 263.908282 143.167237 
L 262.993052 143.209298 
L 262.077823 143.25136 
L 261.192116 143.293421 
L 260.276887 143.335482 
L 259.391181 143.377544 
L 258.475951 143.461667 
L 257.649292 143.545789 
L 256.734062 143.629912 
L 255.818832 143.714035 
L 254.933126 143.798158 
L 254.017897 143.882281 
L 253.13219 143.966404 
L 252.216961 144.050526 
L 251.301731 144.134649 
L 250.416025 144.218772 
L 249.500795 144.302895 
L 248.615089 144.387018 
L 247.699859 144.47114 
L 246.8732 144.555263 
L 245.957971 144.639386 
L 245.042741 144.723509 
L 244.157035 144.807632 
L 243.241805 144.849693 
L 242.356099 144.891754 
L 241.440869 144.933816 
L 240.525639 144.975877 
L 239.639933 145.017939 
L 238.724704 145.06 
L 237.838997 145.102061 
L 236.923768 145.144123 
L 236.067585 145.186184 
L 235.152355 145.228246 
L 234.237126 145.228246 
L 233.35142 145.228246 
L 232.43619 145.228246 
L 231.550484 145.228246 
L 230.635254 145.228246 
L 229.720024 145.228246 
L 228.834318 145.228246 
L 227.919089 145.228246 
L 227.033382 145.228246 
L 226.118153 145.228246 
L 225.291494 145.228246 
L 224.376264 145.270307 
L 223.461034 145.270307 
L 222.575328 145.270307 
L 221.660098 145.270307 
L 220.774392 145.270307 
L 219.859162 145.270307 
L 218.943933 145.270307 
L 218.058227 145.270307 
L 217.142997 145.270307 
L 216.257291 145.270307 
L 215.342061 145.270307 
L 214.515402 145.270307 
L 213.600172 145.270307 
L 212.684943 145.270307 
L 211.799236 145.270307 
L 210.884007 145.270307 
L 209.998301 145.270307 
L 209.083071 145.312368 
L 208.167841 145.35443 
L 207.282135 145.396491 
L 206.366905 145.438553 
L 205.481199 145.480614 
L 204.56597 145.522675 
L 203.73931 145.564737 
L 202.824081 145.606798 
L 201.908851 145.64886 
L 201.023145 145.690921 
L 200.107915 145.732982 
L 199.222209 145.732982 
L 198.306979 145.732982 
L 197.39175 145.732982 
L 196.506044 145.732982 
L 195.590814 145.732982 
L 194.705108 145.732982 
L 193.789878 145.732982 
L 192.933695 145.775044 
L 192.018466 145.817105 
L 191.103236 145.859167 
L 190.21753 145.901228 
L 189.3023 145.943289 
L 188.416594 145.985351 
L 187.501364 146.027412 
L 186.586135 146.069474 
L 185.700428 146.111535 
L 184.785199 146.153596 
L 183.899493 146.153596 
L 182.984263 146.153596 
L 182.157604 146.153596 
L 181.242374 146.153596 
L 180.327144 146.153596 
L 179.441438 146.153596 
L 178.526209 146.153596 
L 177.640502 146.153596 
L 176.725273 146.153596 
L 175.810043 146.153596 
L 174.924337 146.153596 
L 174.009107 146.153596 
L 173.123401 146.153596 
L 172.208171 146.153596 
L 171.381512 146.153596 
L 170.466283 146.153596 
L 169.551053 146.153596 
L 168.665347 146.153596 
L 167.750117 146.153596 
L 166.864411 146.153596 
L 165.949181 146.153596 
L 165.033951 146.153596 
L 164.148245 146.153596 
L 163.233016 146.153596 
L 162.347309 146.153596 
L 161.43208 146.153596 
L 160.605421 146.153596 
L 159.690191 146.153596 
L 158.774961 146.153596 
L 157.889255 146.195658 
L 156.974025 146.237719 
L 156.088319 146.279781 
L 155.17309 146.321842 
L 154.25786 146.363904 
L 153.372154 146.405965 
L 152.456924 146.405965 
L 151.571218 146.405965 
L 150.655988 146.405965 
L 149.799806 146.405965 
L 148.884576 146.405965 
L 147.969346 146.405965 
L 147.08364 146.405965 
L 146.16841 146.405965 
L 145.282704 146.405965 
L 144.367474 146.405965 
L 143.452245 146.405965 
L 142.566539 146.405965 
L 141.651309 146.405965 
L 140.765603 146.405965 
L 139.850373 146.405965 
L 139.023714 146.405965 
L 138.108484 146.405965 
L 137.193255 146.448026 
L 136.307548 146.490088 
L 135.392319 146.532149 
L 134.506613 146.574211 
L 133.591383 146.616272 
L 132.676153 146.658333 
L 131.790447 146.700395 
L 130.875217 146.742456 
L 129.989511 146.784518 
L 129.074282 146.826579 
L 128.247622 146.86864 
L 127.332393 146.910702 
L 126.417163 146.952763 
L 125.531457 146.994825 
L 124.616227 147.036886 
L 123.730521 147.078947 
L 122.815291 147.078947 
L 121.900062 147.078947 
L 121.014356 147.078947 
L 120.099126 147.078947 
L 119.21342 147.078947 
L 118.29819 147.078947 
L 117.471531 147.078947 
L 116.556301 147.078947 
L 115.641071 147.078947 
L 114.755365 147.078947 
L 113.840136 147.078947 
L 112.954429 147.078947 
L 112.0392 147.078947 
L 111.12397 147.078947 
L 110.238264 147.078947 
L 109.323034 147.078947 
L 108.437328 147.078947 
L 107.522098 147.078947 
L 106.665916 147.078947 
L 105.750686 147.078947 
L 104.835456 147.078947 
L 103.94975 147.078947 
L 103.034521 147.078947 
L 102.148814 147.078947 
L 101.233585 147.078947 
L 100.318355 147.078947 
L 99.432649 147.078947 
L 98.517419 147.078947 
L 97.631713 147.078947 
L 96.716483 147.078947 
L 95.889824 147.078947 
L 94.974595 147.078947 
L 94.059365 147.078947 
L 93.173659 147.078947 
L 92.258429 147.078947 
L 91.372723 147.078947 
L 90.457493 147.078947 
L 89.542263 147.078947 
L 88.656557 147.078947 
L 87.741328 147.078947 
L 86.855621 147.078947 
L 85.940392 147.078947 
L 85.113733 147.078947 
L 84.198503 147.078947 
L 83.283273 147.078947 
L 82.397567 147.078947 
L 81.482337 147.078947 
L 80.596631 147.078947 
L 79.681402 147.078947 
L 78.766172 147.078947 
L 77.880466 147.078947 
L 76.965236 147.078947 
L 76.07953 147.078947 
L 75.1643 147.078947 
L 74.337641 147.078947 
L 73.422411 147.078947 
L 72.507182 147.078947 
L 71.621476 147.078947 
L 70.706246 147.078947 
L 69.82054 147.078947 
L 68.90531 147.078947 
L 67.99008 147.078947 
L 67.104374 147.078947 
L 66.189144 147.078947 
L 65.303438 147.078947 
L 64.388209 147.078947 
L 63.532026 147.078947 
L 62.616796 147.078947 
z
" style="fill:#8b4513;"/>
   </g>
   <g id="PolyCollection_2">
    <path clip-path="url(#pcf54915caa)" d="M 62.616796 145.480614 
L 62.616796 147.078947 
L 63.532026 147.078947 
L 64.388209 147.078947 
L 65.303438 147.078947 
L 66.189144 147.078947 
L 67.104374 147.078947 
L 67.99008 147.078947 
L 68.90531 147.078947 
L 69.82054 147.078947 
L 70.706246 147.078947 
L 71.621476 147.078947 
L 72.507182 147.078947 
L 73.422411 147.078947 
L 74.337641 147.078947 
L 75.1643 147.078947 
L 76.07953 147.078947 
L 76.965236 147.078947 
L 77.880466 147.078947 
L 78.766172 147.078947 
L 79.681402 147.078947 
L 80.596631 147.078947 
L 81.482337 147.078947 
L 82.397567 147.078947 
L 83.283273 147.078947 
L 84.198503 147.078947 
L 85.113733 147.078947 
L 85.940392 147.078947 
L 86.855621 147.078947 
L 87.741328 147.078947 
L 88.656557 147.078947 
L 89.542263 147.078947 
L 90.457493 147.078947 
L 91.372723 147.078947 
L 92.258429 147.078947 
L 93.173659 147.078947 
L 94.059365 147.078947 
L 94.974595 147.078947 
L 95.889824 147.078947 
L 96.716483 147.078947 
L 97.631713 147.078947 
L 98.517419 147.078947 
L 99.432649 147.078947 
L 100.318355 147.078947 
L 101.233585 147.078947 
L 102.148814 147.078947 
L 103.034521 147.078947 
L 103.94975 147.078947 
L 104.835456 147.078947 
L 105.750686 147.078947 
L 106.665916 147.078947 
L 107.522098 147.078947 
L 108.437328 147.078947 
L 109.323034 147.078947 
L 110.238264 147.078947 
L 111.12397 147.078947 
L 112.0392 147.078947 
L 112.954429 147.078947 
L 113.840136 147.078947 
L 114.755365 147.078947 
L 115.641071 147.078947 
L 116.556301 147.078947 
L 117.471531 147.078947 
L 118.29819 147.078947 
L 119.21342 147.078947 
L 120.099126 147.078947 
L 121.014356 147.078947 
L 121.900062 147.078947 
L 122.815291 147.078947 
L 123.730521 147.078947 
L 124.616227 147.036886 
L 125.531457 146.994825 
L 126.417163 146.952763 
L 127.332393 146.910702 
L 128.247622 146.86864 
L 129.074282 146.826579 
L 129.989511 146.784518 
L 130.875217 146.742456 
L 131.790447 146.700395 
L 132.676153 146.658333 
L 133.591383 146.616272 
L 134.506613 146.574211 
L 135.392319 146.532149 
L 136.307548 146.490088 
L 137.193255 146.448026 
L 138.108484 146.405965 
L 139.023714 146.405965 
L 139.850373 146.405965 
L 140.765603 146.405965 
L 141.651309 146.405965 
L 142.566539 146.405965 
L 143.452245 146.405965 
L 144.367474 146.405965 
L 145.282704 146.405965 
L 146.16841 146.405965 
L 147.08364 146.405965 
L 147.969346 146.405965 
L 148.884576 146.405965 
L 149.799806 146.405965 
L 150.655988 146.405965 
L 151.571218 146.405965 
L 152.456924 146.405965 
L 153.372154 146.405965 
L 154.25786 146.363904 
L 155.17309 146.321842 
L 156.088319 146.279781 
L 156.974025 146.237719 
L 157.889255 146.195658 
L 158.774961 146.153596 
L 159.690191 146.153596 
L 160.605421 146.153596 
L 161.43208 146.153596 
L 162.347309 146.153596 
L 163.233016 146.153596 
L 164.148245 146.153596 
L 165.033951 146.153596 
L 165.949181 146.153596 
L 166.864411 146.153596 
L 167.750117 146.153596 
L 168.665347 146.153596 
L 169.551053 146.153596 
L 170.466283 146.153596 
L 171.381512 146.153596 
L 172.208171 146.153596 
L 173.123401 146.153596 
L 174.009107 146.153596 
L 174.924337 146.153596 
L 175.810043 146.153596 
L 176.725273 146.153596 
L 177.640502 146.153596 
L 178.526209 146.153596 
L 179.441438 146.153596 
L 180.327144 146.153596 
L 181.242374 146.153596 
L 182.157604 146.153596 
L 182.984263 146.153596 
L 183.899493 146.153596 
L 184.785199 146.153596 
L 185.700428 146.111535 
L 186.586135 146.069474 
L 187.501364 146.027412 
L 188.416594 145.985351 
L 189.3023 145.943289 
L 190.21753 145.901228 
L 191.103236 145.859167 
L 192.018466 145.817105 
L 192.933695 145.775044 
L 193.789878 145.732982 
L 194.705108 145.732982 
L 195.590814 145.732982 
L 196.506044 145.732982 
L 197.39175 145.732982 
L 198.306979 145.732982 
L 199.222209 145.732982 
L 200.107915 145.732982 
L 201.023145 145.690921 
L 201.908851 145.64886 
L 202.824081 145.606798 
L 203.73931 145.564737 
L 204.56597 145.522675 
L 205.481199 145.480614 
L 206.366905 145.438553 
L 207.282135 145.396491 
L 208.167841 145.35443 
L 209.083071 145.312368 
L 209.998301 145.270307 
L 210.884007 145.270307 
L 211.799236 145.270307 
L 212.684943 145.270307 
L 213.600172 145.270307 
L 214.515402 145.270307 
L 215.342061 145.270307 
L 216.257291 145.270307 
L 217.142997 145.270307 
L 218.058227 145.270307 
L 218.943933 145.270307 
L 219.859162 145.270307 
L 220.774392 145.270307 
L 221.660098 145.270307 
L 222.575328 145.270307 
L 223.461034 145.270307 
L 224.376264 145.270307 
L 225.291494 145.228246 
L 226.118153 145.228246 
L 227.033382 145.228246 
L 227.919089 145.228246 
L 228.834318 145.228246 
L 229.720024 145.228246 
L 230.635254 145.228246 
L 231.550484 145.228246 
L 232.43619 145.228246 
L 233.35142 145.228246 
L 234.237126 145.228246 
L 235.152355 145.228246 
L 236.067585 145.186184 
L 236.923768 145.144123 
L 237.838997 145.102061 
L 238.724704 145.06 
L 239.639933 145.017939 
L 240.525639 144.975877 
L 241.440869 144.933816 
L 242.356099 144.891754 
L 243.241805 144.849693 
L 244.157035 144.807632 
L 245.042741 144.723509 
L 245.957971 144.639386 
L 246.8732 144.555263 
L 247.699859 144.47114 
L 248.615089 144.387018 
L 249.500795 144.302895 
L 250.416025 144.218772 
L 251.301731 144.134649 
L 252.216961 144.050526 
L 253.13219 143.966404 
L 254.017897 143.882281 
L 254.933126 143.798158 
L 255.818832 143.714035 
L 256.734062 143.629912 
L 257.649292 143.545789 
L 258.475951 143.461667 
L 259.391181 143.377544 
L 260.276887 143.335482 
L 261.192116 143.293421 
L 262.077823 143.25136 
L 262.993052 143.209298 
L 263.908282 143.167237 
L 264.793988 143.125175 
L 265.709218 143.083114 
L 266.594924 143.041053 
L 267.510154 142.998991 
L 268.425383 142.95693 
L 269.252042 142.914868 
L 270.167272 142.872807 
L 271.052978 142.830746 
L 271.968208 142.788684 
L 272.853914 142.746623 
L 273.769144 142.704561 
L 274.684374 142.6625 
L 275.57008 142.620439 
L 276.485309 142.578377 
L 277.371016 142.536316 
L 278.286245 142.494254 
L 279.201475 142.452193 
L 280.057658 142.410132 
L 280.972887 142.36807 
L 281.858593 142.326009 
L 282.773823 142.283947 
L 283.659529 142.241886 
L 284.574759 142.199825 
L 285.489989 142.157763 
L 286.375695 142.115702 
L 287.290924 142.07364 
L 288.176631 142.031579 
L 289.09186 141.989518 
L 290.00709 141.947456 
L 290.833749 141.905395 
L 291.748979 141.863333 
L 292.634685 141.821272 
L 293.549915 141.779211 
L 294.435621 141.737149 
L 295.350851 141.695088 
L 296.26608 141.653026 
L 297.151786 141.568904 
L 298.067016 141.484781 
L 298.952722 141.400658 
L 298.952722 50.337719 
L 298.952722 50.337719 
L 298.067016 51.052763 
L 297.151786 51.767807 
L 296.26608 52.482851 
L 295.350851 53.155833 
L 294.435621 53.870877 
L 293.549915 54.501798 
L 292.634685 55.216842 
L 291.748979 55.847763 
L 290.833749 56.562807 
L 290.00709 57.193728 
L 289.09186 57.866711 
L 288.176631 58.539693 
L 287.290924 59.212675 
L 286.375695 59.927719 
L 285.489989 60.642763 
L 284.574759 61.315746 
L 283.659529 62.030789 
L 282.773823 62.661711 
L 281.858593 63.376754 
L 280.972887 64.049737 
L 280.057658 64.722719 
L 279.201475 65.35364 
L 278.286245 66.068684 
L 277.371016 66.741667 
L 276.485309 67.414649 
L 275.57008 68.087632 
L 274.684374 68.760614 
L 273.769144 69.433596 
L 272.853914 70.106579 
L 271.968208 70.779561 
L 271.052978 71.452544 
L 270.167272 72.083465 
L 269.252042 72.672325 
L 268.425383 73.261184 
L 267.510154 73.892105 
L 266.594924 74.480965 
L 265.709218 75.069825 
L 264.793988 75.658684 
L 263.908282 76.247544 
L 262.993052 76.878465 
L 262.077823 77.509386 
L 261.192116 78.140307 
L 260.276887 78.771228 
L 259.391181 79.318026 
L 258.475951 79.906886 
L 257.649292 80.453684 
L 256.734062 81.084605 
L 255.818832 81.673465 
L 254.933126 82.262325 
L 254.017897 82.851184 
L 253.13219 83.440044 
L 252.216961 84.028904 
L 251.301731 84.617763 
L 250.416025 85.248684 
L 249.500795 85.879605 
L 248.615089 86.552588 
L 247.699859 87.183509 
L 246.8732 87.730307 
L 245.957971 88.361228 
L 245.042741 88.908026 
L 244.157035 89.412763 
L 243.241805 89.9175 
L 242.356099 90.422237 
L 241.440869 90.926974 
L 240.525639 91.431711 
L 239.639933 91.936447 
L 238.724704 92.441184 
L 237.838997 92.945921 
L 236.923768 93.492719 
L 236.067585 94.039518 
L 235.152355 94.586316 
L 234.237126 95.091053 
L 233.35142 95.595789 
L 232.43619 96.100526 
L 231.550484 96.605263 
L 230.635254 97.11 
L 229.720024 97.614737 
L 228.834318 98.077412 
L 227.919089 98.540088 
L 227.033382 99.002763 
L 226.118153 99.465439 
L 225.291494 99.928114 
L 224.376264 100.432851 
L 223.461034 100.895526 
L 222.575328 101.358202 
L 221.660098 101.778816 
L 220.774392 102.19943 
L 219.859162 102.662105 
L 218.943933 103.124781 
L 218.058227 103.587456 
L 217.142997 104.050132 
L 216.257291 104.512807 
L 215.342061 104.975482 
L 214.515402 105.438158 
L 213.600172 105.858772 
L 212.684943 106.279386 
L 211.799236 106.7 
L 210.884007 107.120614 
L 209.998301 107.541228 
L 209.083071 108.003904 
L 208.167841 108.466579 
L 207.282135 108.929254 
L 206.366905 109.39193 
L 205.481199 109.854605 
L 204.56597 110.359342 
L 203.73931 110.864079 
L 202.824081 111.368816 
L 201.908851 111.873553 
L 201.023145 112.378289 
L 200.107915 112.883026 
L 199.222209 113.30364 
L 198.306979 113.724254 
L 197.39175 114.144868 
L 196.506044 114.565482 
L 195.590814 114.986096 
L 194.705108 115.406711 
L 193.789878 115.827325 
L 192.933695 116.247939 
L 192.018466 116.668553 
L 191.103236 117.089167 
L 190.21753 117.509781 
L 189.3023 117.930395 
L 188.416594 118.308947 
L 187.501364 118.6875 
L 186.586135 119.023991 
L 185.700428 119.360482 
L 184.785199 119.696974 
L 183.899493 119.991404 
L 182.984263 120.327895 
L 182.157604 120.664386 
L 181.242374 121.000877 
L 180.327144 121.337368 
L 179.441438 121.715921 
L 178.526209 122.094474 
L 177.640502 122.473026 
L 176.725273 122.767456 
L 175.810043 123.061886 
L 174.924337 123.356316 
L 174.009107 123.650746 
L 173.123401 123.945175 
L 172.208171 124.239605 
L 171.381512 124.534035 
L 170.466283 124.828465 
L 169.551053 125.122895 
L 168.665347 125.417325 
L 167.750117 125.711754 
L 166.864411 125.964123 
L 165.949181 126.216491 
L 165.033951 126.46886 
L 164.148245 126.721228 
L 163.233016 126.973596 
L 162.347309 127.225965 
L 161.43208 127.436272 
L 160.605421 127.604518 
L 159.690191 127.772763 
L 158.774961 127.941009 
L 157.889255 128.151316 
L 156.974025 128.361623 
L 156.088319 128.57193 
L 155.17309 128.782237 
L 154.25786 128.992544 
L 153.372154 129.202851 
L 152.456924 129.371096 
L 151.571218 129.539342 
L 150.655988 129.707588 
L 149.799806 129.875833 
L 148.884576 130.044079 
L 147.969346 130.254386 
L 147.08364 130.464693 
L 146.16841 130.675 
L 145.282704 130.885307 
L 144.367474 131.095614 
L 143.452245 131.305921 
L 142.566539 131.516228 
L 141.651309 131.726535 
L 140.765603 131.936842 
L 139.850373 132.105088 
L 139.023714 132.273333 
L 138.108484 132.441579 
L 137.193255 132.651886 
L 136.307548 132.862193 
L 135.392319 133.0725 
L 134.506613 133.282807 
L 133.591383 133.493114 
L 132.676153 133.703421 
L 131.790447 133.913728 
L 130.875217 134.124035 
L 129.989511 134.334342 
L 129.074282 134.544649 
L 128.247622 134.754956 
L 127.332393 134.965263 
L 126.417163 135.17557 
L 125.531457 135.385877 
L 124.616227 135.596184 
L 123.730521 135.806491 
L 122.815291 136.016798 
L 121.900062 136.227105 
L 121.014356 136.437412 
L 120.099126 136.647719 
L 119.21342 136.858026 
L 118.29819 137.068333 
L 117.471531 137.27864 
L 116.556301 137.446886 
L 115.641071 137.615132 
L 114.755365 137.783377 
L 113.840136 137.951623 
L 112.954429 138.119868 
L 112.0392 138.330175 
L 111.12397 138.540482 
L 110.238264 138.750789 
L 109.323034 138.961096 
L 108.437328 139.171404 
L 107.522098 139.339649 
L 106.665916 139.507895 
L 105.750686 139.67614 
L 104.835456 139.844386 
L 103.94975 140.012632 
L 103.034521 140.180877 
L 102.148814 140.349123 
L 101.233585 140.517368 
L 100.318355 140.727675 
L 99.432649 140.85386 
L 98.517419 141.064167 
L 97.631713 141.190351 
L 96.716483 141.400658 
L 95.889824 141.526842 
L 94.974595 141.695088 
L 94.059365 141.821272 
L 93.173659 141.947456 
L 92.258429 142.07364 
L 91.372723 142.199825 
L 90.457493 142.326009 
L 89.542263 142.494254 
L 88.656557 142.578377 
L 87.741328 142.746623 
L 86.855621 142.830746 
L 85.940392 142.998991 
L 85.113733 143.083114 
L 84.198503 143.209298 
L 83.283273 143.335482 
L 82.397567 143.461667 
L 81.482337 143.587851 
L 80.596631 143.714035 
L 79.681402 143.840219 
L 78.766172 143.966404 
L 77.880466 144.008465 
L 76.965236 144.134649 
L 76.07953 144.218772 
L 75.1643 144.302895 
L 74.337641 144.344956 
L 73.422411 144.429079 
L 72.507182 144.513202 
L 71.621476 144.597325 
L 70.706246 144.681447 
L 69.82054 144.76557 
L 68.90531 144.849693 
L 67.99008 144.975877 
L 67.104374 145.06 
L 66.189144 145.144123 
L 65.303438 145.228246 
L 64.388209 145.312368 
L 63.532026 145.35443 
L 62.616796 145.480614 
z
" style="fill:#90ee90;"/>
   </g>
   <g id="PolyCollection_3">
    <path clip-path="url(#pcf54915caa)" d="M 62.616796 144.555263 
L 62.616796 145.480614 
L 63.532026 145.35443 
L 64.388209 145.312368 
L 65.303438 145.228246 
L 66.189144 145.144123 
L 67.104374 145.06 
L 67.99008 144.975877 
L 68.90531 144.849693 
L 69.82054 144.76557 
L 70.706246 144.681447 
L 71.621476 144.597325 
L 72.507182 144.513202 
L 73.422411 144.429079 
L 74.337641 144.344956 
L 75.1643 144.302895 
L 76.07953 144.218772 
L 76.965236 144.134649 
L 77.880466 144.008465 
L 78.766172 143.966404 
L 79.681402 143.840219 
L 80.596631 143.714035 
L 81.482337 143.587851 
L 82.397567 143.461667 
L 83.283273 143.335482 
L 84.198503 143.209298 
L 85.113733 143.083114 
L 85.940392 142.998991 
L 86.855621 142.830746 
L 87.741328 142.746623 
L 88.656557 142.578377 
L 89.542263 142.494254 
L 90.457493 142.326009 
L 91.372723 142.199825 
L 92.258429 142.07364 
L 93.173659 141.947456 
L 94.059365 141.821272 
L 94.974595 141.695088 
L 95.889824 141.526842 
L 96.716483 141.400658 
L 97.631713 141.190351 
L 98.517419 141.064167 
L 99.432649 140.85386 
L 100.318355 140.727675 
L 101.233585 140.517368 
L 102.148814 140.349123 
L 103.034521 140.180877 
L 103.94975 140.012632 
L 104.835456 139.844386 
L 105.750686 139.67614 
L 106.665916 139.507895 
L 107.522098 139.339649 
L 108.437328 139.171404 
L 109.323034 138.961096 
L 110.238264 138.750789 
L 111.12397 138.540482 
L 112.0392 138.330175 
L 112.954429 138.119868 
L 113.840136 137.951623 
L 114.755365 137.783377 
L 115.641071 137.615132 
L 116.556301 137.446886 
L 117.471531 137.27864 
L 118.29819 137.068333 
L 119.21342 136.858026 
L 120.099126 136.647719 
L 121.014356 136.437412 
L 121.900062 136.227105 
L 122.815291 136.016798 
L 123.730521 135.806491 
L 124.616227 135.596184 
L 125.531457 135.385877 
L 126.417163 135.17557 
L 127.332393 134.965263 
L 128.247622 134.754956 
L 129.074282 134.544649 
L 129.989511 134.334342 
L 130.875217 134.124035 
L 131.790447 133.913728 
L 132.676153 133.703421 
L 133.591383 133.493114 
L 134.506613 133.282807 
L 135.392319 133.0725 
L 136.307548 132.862193 
L 137.193255 132.651886 
L 138.108484 132.441579 
L 139.023714 132.273333 
L 139.850373 132.105088 
L 140.765603 131.936842 
L 141.651309 131.726535 
L 142.566539 131.516228 
L 143.452245 131.305921 
L 144.367474 131.095614 
L 145.282704 130.885307 
L 146.16841 130.675 
L 147.08364 130.464693 
L 147.969346 130.254386 
L 148.884576 130.044079 
L 149.799806 129.875833 
L 150.655988 129.707588 
L 151.571218 129.539342 
L 152.456924 129.371096 
L 153.372154 129.202851 
L 154.25786 128.992544 
L 155.17309 128.782237 
L 156.088319 128.57193 
L 156.974025 128.361623 
L 157.889255 128.151316 
L 158.774961 127.941009 
L 159.690191 127.772763 
L 160.605421 127.604518 
L 161.43208 127.436272 
L 162.347309 127.225965 
L 163.233016 126.973596 
L 164.148245 126.721228 
L 165.033951 126.46886 
L 165.949181 126.216491 
L 166.864411 125.964123 
L 167.750117 125.711754 
L 168.665347 125.417325 
L 169.551053 125.122895 
L 170.466283 124.828465 
L 171.381512 124.534035 
L 172.208171 124.239605 
L 173.123401 123.945175 
L 174.009107 123.650746 
L 174.924337 123.356316 
L 175.810043 123.061886 
L 176.725273 122.767456 
L 177.640502 122.473026 
L 178.526209 122.094474 
L 179.441438 121.715921 
L 180.327144 121.337368 
L 181.242374 121.000877 
L 182.157604 120.664386 
L 182.984263 120.327895 
L 183.899493 119.991404 
L 184.785199 119.696974 
L 185.700428 119.360482 
L 186.586135 119.023991 
L 187.501364 118.6875 
L 188.416594 118.308947 
L 189.3023 117.930395 
L 190.21753 117.509781 
L 191.103236 117.089167 
L 192.018466 116.668553 
L 192.933695 116.247939 
L 193.789878 115.827325 
L 194.705108 115.406711 
L 195.590814 114.986096 
L 196.506044 114.565482 
L 197.39175 114.144868 
L 198.306979 113.724254 
L 199.222209 113.30364 
L 200.107915 112.883026 
L 201.023145 112.378289 
L 201.908851 111.873553 
L 202.824081 111.368816 
L 203.73931 110.864079 
L 204.56597 110.359342 
L 205.481199 109.854605 
L 206.366905 109.39193 
L 207.282135 108.929254 
L 208.167841 108.466579 
L 209.083071 108.003904 
L 209.998301 107.541228 
L 210.884007 107.120614 
L 211.799236 106.7 
L 212.684943 106.279386 
L 213.600172 105.858772 
L 214.515402 105.438158 
L 215.342061 104.975482 
L 216.257291 104.512807 
L 217.142997 104.050132 
L 218.058227 103.587456 
L 218.943933 103.124781 
L 219.859162 102.662105 
L 220.774392 102.19943 
L 221.660098 101.778816 
L 222.575328 101.358202 
L 223.461034 100.895526 
L 224.376264 100.432851 
L 225.291494 99.928114 
L 226.118153 99.465439 
L 227.033382 99.002763 
L 227.919089 98.540088 
L 228.834318 98.077412 
L 229.720024 97.614737 
L 230.635254 97.11 
L 231.550484 96.605263 
L 232.43619 96.100526 
L 233.35142 95.595789 
L 234.237126 95.091053 
L 235.152355 94.586316 
L 236.067585 94.039518 
L 236.923768 93.492719 
L 237.838997 92.945921 
L 238.724704 92.441184 
L 239.639933 91.936447 
L 240.525639 91.431711 
L 241.440869 90.926974 
L 242.356099 90.422237 
L 243.241805 89.9175 
L 244.157035 89.412763 
L 245.042741 88.908026 
L 245.957971 88.361228 
L 246.8732 87.730307 
L 247.699859 87.183509 
L 248.615089 86.552588 
L 249.500795 85.879605 
L 250.416025 85.248684 
L 251.301731 84.617763 
L 252.216961 84.028904 
L 253.13219 83.440044 
L 254.017897 82.851184 
L 254.933126 82.262325 
L 255.818832 81.673465 
L 256.734062 81.084605 
L 257.649292 80.453684 
L 258.475951 79.906886 
L 259.391181 79.318026 
L 260.276887 78.771228 
L 261.192116 78.140307 
L 262.077823 77.509386 
L 262.993052 76.878465 
L 263.908282 76.247544 
L 264.793988 75.658684 
L 265.709218 75.069825 
L 266.594924 74.480965 
L 267.510154 73.892105 
L 268.425383 73.261184 
L 269.252042 72.672325 
L 270.167272 72.083465 
L 271.052978 71.452544 
L 271.968208 70.779561 
L 272.853914 70.106579 
L 273.769144 69.433596 
L 274.684374 68.760614 
L 275.57008 68.087632 
L 276.485309 67.414649 
L 277.371016 66.741667 
L 278.286245 66.068684 
L 279.201475 65.35364 
L 280.057658 64.722719 
L 280.972887 64.049737 
L 281.858593 63.376754 
L 282.773823 62.661711 
L 283.659529 62.030789 
L 284.574759 61.315746 
L 285.489989 60.642763 
L 286.375695 59.927719 
L 287.290924 59.212675 
L 288.176631 58.539693 
L 289.09186 57.866711 
L 290.00709 57.193728 
L 290.833749 56.562807 
L 291.748979 55.847763 
L 292.634685 55.216842 
L 293.549915 54.501798 
L 294.435621 53.870877 
L 295.350851 53.155833 
L 296.26608 52.482851 
L 297.151786 51.767807 
L 298.067016 51.052763 
L 298.952722 50.337719 
L 298.952722 24.932632 
L 298.952722 24.932632 
L 298.067016 25.77386 
L 297.151786 26.615088 
L 296.26608 27.456316 
L 295.350851 28.255482 
L 294.435621 29.096711 
L 293.549915 29.853816 
L 292.634685 30.737105 
L 291.748979 31.536272 
L 290.833749 32.419561 
L 290.00709 33.218728 
L 289.09186 34.059956 
L 288.176631 34.901184 
L 287.290924 35.742412 
L 286.375695 36.625702 
L 285.489989 37.551053 
L 284.574759 38.434342 
L 283.659529 39.359693 
L 282.773823 40.200921 
L 281.858593 41.126272 
L 280.972887 42.009561 
L 280.057658 42.934912 
L 279.201475 43.818202 
L 278.286245 44.785614 
L 277.371016 45.753026 
L 276.485309 46.678377 
L 275.57008 47.561667 
L 274.684374 48.402895 
L 273.769144 49.244123 
L 272.853914 50.085351 
L 271.968208 50.926579 
L 271.052978 51.767807 
L 270.167272 52.566974 
L 269.252042 53.324079 
L 268.425383 54.081184 
L 267.510154 54.880351 
L 266.594924 55.637456 
L 265.709218 56.394561 
L 264.793988 57.151667 
L 263.908282 57.908772 
L 262.993052 58.707939 
L 262.077823 59.507105 
L 261.192116 60.306272 
L 260.276887 61.105439 
L 259.391181 61.820482 
L 258.475951 62.577588 
L 257.649292 63.292632 
L 256.734062 64.091798 
L 255.818832 64.890965 
L 254.933126 65.690132 
L 254.017897 66.489298 
L 253.13219 67.288465 
L 252.216961 68.04557 
L 251.301731 68.802675 
L 250.416025 69.601842 
L 249.500795 70.401009 
L 248.615089 71.242237 
L 247.699859 72.041404 
L 246.8732 72.756447 
L 245.957971 73.555614 
L 245.042741 74.270658 
L 244.157035 74.94364 
L 243.241805 75.616623 
L 242.356099 76.289605 
L 241.440869 76.962588 
L 240.525639 77.63557 
L 239.639933 78.308553 
L 238.724704 78.939474 
L 237.838997 79.570395 
L 236.923768 80.243377 
L 236.067585 80.91636 
L 235.152355 81.589342 
L 234.237126 82.220263 
L 233.35142 82.893246 
L 232.43619 83.566228 
L 231.550484 84.197149 
L 230.635254 84.82807 
L 229.720024 85.41693 
L 228.834318 85.963728 
L 227.919089 86.510526 
L 227.033382 87.057325 
L 226.118153 87.604123 
L 225.291494 88.150921 
L 224.376264 88.739781 
L 223.461034 89.286579 
L 222.575328 89.833377 
L 221.660098 90.338114 
L 220.774392 90.842851 
L 219.859162 91.389649 
L 218.943933 91.936447 
L 218.058227 92.483246 
L 217.142997 93.072105 
L 216.257291 93.660965 
L 215.342061 94.249825 
L 214.515402 94.838684 
L 213.600172 95.385482 
L 212.684943 95.932281 
L 211.799236 96.479079 
L 210.884007 97.025877 
L 209.998301 97.572675 
L 209.083071 98.161535 
L 208.167841 98.750395 
L 207.282135 99.339254 
L 206.366905 99.928114 
L 205.481199 100.516974 
L 204.56597 101.147895 
L 203.73931 101.778816 
L 202.824081 102.409737 
L 201.908851 103.040658 
L 201.023145 103.671579 
L 200.107915 104.3025 
L 199.222209 104.849298 
L 198.306979 105.396096 
L 197.39175 105.942895 
L 196.506044 106.489693 
L 195.590814 106.99443 
L 194.705108 107.499167 
L 193.789878 108.003904 
L 192.933695 108.50864 
L 192.018466 109.013377 
L 191.103236 109.518114 
L 190.21753 110.022851 
L 189.3023 110.527588 
L 188.416594 110.990263 
L 187.501364 111.452939 
L 186.586135 111.873553 
L 185.700428 112.294167 
L 184.785199 112.714781 
L 183.899493 113.093333 
L 182.984263 113.513947 
L 182.157604 113.934561 
L 181.242374 114.355175 
L 180.327144 114.775789 
L 179.441438 115.238465 
L 178.526209 115.70114 
L 177.640502 116.163816 
L 176.725273 116.500307 
L 175.810043 116.836798 
L 174.924337 117.173289 
L 174.009107 117.509781 
L 173.123401 117.846272 
L 172.208171 118.182763 
L 171.381512 118.519254 
L 170.466283 118.855746 
L 169.551053 119.192237 
L 168.665347 119.528728 
L 167.750117 119.865219 
L 166.864411 120.159649 
L 165.949181 120.454079 
L 165.033951 120.748509 
L 164.148245 121.042939 
L 163.233016 121.337368 
L 162.347309 121.631798 
L 161.43208 121.884167 
L 160.605421 122.094474 
L 159.690191 122.304781 
L 158.774961 122.515088 
L 157.889255 122.767456 
L 156.974025 123.019825 
L 156.088319 123.272193 
L 155.17309 123.524561 
L 154.25786 123.77693 
L 153.372154 124.029298 
L 152.456924 124.239605 
L 151.571218 124.449912 
L 150.655988 124.660219 
L 149.799806 124.870526 
L 148.884576 125.080833 
L 147.969346 125.333202 
L 147.08364 125.58557 
L 146.16841 125.837939 
L 145.282704 126.090307 
L 144.367474 126.342675 
L 143.452245 126.595044 
L 142.566539 126.847412 
L 141.651309 127.099781 
L 140.765603 127.352149 
L 139.850373 127.562456 
L 139.023714 127.772763 
L 138.108484 127.98307 
L 137.193255 128.235439 
L 136.307548 128.487807 
L 135.392319 128.740175 
L 134.506613 128.992544 
L 133.591383 129.244912 
L 132.676153 129.497281 
L 131.790447 129.749649 
L 130.875217 130.002018 
L 129.989511 130.254386 
L 129.074282 130.506754 
L 128.247622 130.759123 
L 127.332393 131.011491 
L 126.417163 131.26386 
L 125.531457 131.516228 
L 124.616227 131.768596 
L 123.730521 132.020965 
L 122.815291 132.273333 
L 121.900062 132.525702 
L 121.014356 132.77807 
L 120.099126 133.030439 
L 119.21342 133.282807 
L 118.29819 133.535175 
L 117.471531 133.787544 
L 116.556301 133.997851 
L 115.641071 134.208158 
L 114.755365 134.418465 
L 113.840136 134.628772 
L 112.954429 134.839079 
L 112.0392 135.091447 
L 111.12397 135.343816 
L 110.238264 135.596184 
L 109.323034 135.848553 
L 108.437328 136.100921 
L 107.522098 136.311228 
L 106.665916 136.521535 
L 105.750686 136.731842 
L 104.835456 136.942149 
L 103.94975 137.152456 
L 103.034521 137.362763 
L 102.148814 137.57307 
L 101.233585 137.783377 
L 100.318355 138.035746 
L 99.432649 138.203991 
L 98.517419 138.45636 
L 97.631713 138.624605 
L 96.716483 138.876974 
L 95.889824 139.045219 
L 94.974595 139.255526 
L 94.059365 139.423772 
L 93.173659 139.592018 
L 92.258429 139.760263 
L 91.372723 139.928509 
L 90.457493 140.096754 
L 89.542263 140.307061 
L 88.656557 140.433246 
L 87.741328 140.643553 
L 86.855621 140.769737 
L 85.940392 140.980044 
L 85.113733 141.106228 
L 84.198503 141.274474 
L 83.283273 141.442719 
L 82.397567 141.610965 
L 81.482337 141.779211 
L 80.596631 141.947456 
L 79.681402 142.115702 
L 78.766172 142.283947 
L 77.880466 142.36807 
L 76.965236 142.536316 
L 76.07953 142.6625 
L 75.1643 142.788684 
L 74.337641 142.872807 
L 73.422411 142.998991 
L 72.507182 143.125175 
L 71.621476 143.25136 
L 70.706246 143.377544 
L 69.82054 143.503728 
L 68.90531 143.629912 
L 67.99008 143.798158 
L 67.104374 143.924342 
L 66.189144 144.050526 
L 65.303438 144.176711 
L 64.388209 144.302895 
L 63.532026 144.387018 
L 62.616796 144.555263 
z
" style="fill:#c0c0c0;"/>
   </g>
   <g id="PolyCollection_4">
    <path clip-path="url(#pcf54915caa)" d="M 62.616796 149.518509 
L 62.616796 147.078947 
L 63.532026 147.078947 
L 64.388209 147.078947 
L 65.303438 147.078947 
L 66.189144 147.078947 
L 67.104374 147.078947 
L 67.99008 147.078947 
L 68.90531 147.078947 
L 69.82054 147.078947 
L 70.706246 147.078947 
L 71.621476 147.078947 
L 72.507182 147.078947 
L 73.422411 147.078947 
L 74.337641 147.078947 
L 75.1643 147.078947 
L 76.07953 147.078947 
L 76.965236 147.078947 
L 77.880466 147.078947 
L 78.766172 147.078947 
L 79.681402 147.078947 
L 80.596631 147.078947 
L 81.482337 147.078947 
L 82.397567 147.078947 
L 83.283273 147.078947 
L 84.198503 147.078947 
L 85.113733 147.078947 
L 85.940392 147.078947 
L 86.855621 147.078947 
L 87.741328 147.078947 
L 88.656557 147.078947 
L 89.542263 147.078947 
L 90.457493 147.078947 
L 91.372723 147.078947 
L 92.258429 147.078947 
L 93.173659 147.078947 
L 94.059365 147.078947 
L 94.974595 147.078947 
L 95.889824 147.078947 
L 96.716483 147.078947 
L 97.631713 147.078947 
L 98.517419 147.078947 
L 99.432649 147.078947 
L 100.318355 147.078947 
L 101.233585 147.078947 
L 102.148814 147.078947 
L 103.034521 147.078947 
L 103.94975 147.078947 
L 104.835456 147.078947 
L 105.750686 147.078947 
L 106.665916 147.078947 
L 107.522098 147.078947 
L 108.437328 147.078947 
L 109.323034 147.078947 
L 110.238264 147.078947 
L 111.12397 147.078947 
L 112.0392 147.078947 
L 112.954429 147.078947 
L 113.840136 147.078947 
L 114.755365 147.078947 
L 115.641071 147.078947 
L 116.556301 147.078947 
L 117.471531 147.078947 
L 118.29819 147.078947 
L 119.21342 147.078947 
L 120.099126 147.078947 
L 121.014356 147.078947 
L 121.900062 147.078947 
L 122.815291 147.078947 
L 123.730521 147.078947 
L 124.616227 147.078947 
L 125.531457 147.078947 
L 126.417163 147.078947 
L 127.332393 147.078947 
L 128.247622 147.078947 
L 129.074282 147.078947 
L 129.989511 147.078947 
L 130.875217 147.078947 
L 131.790447 147.078947 
L 132.676153 147.078947 
L 133.591383 147.078947 
L 134.506613 147.078947 
L 135.392319 147.078947 
L 136.307548 147.078947 
L 137.193255 147.078947 
L 138.108484 147.078947 
L 139.023714 147.078947 
L 139.850373 147.078947 
L 140.765603 147.078947 
L 141.651309 147.078947 
L 142.566539 147.078947 
L 143.452245 147.078947 
L 144.367474 147.078947 
L 145.282704 147.078947 
L 146.16841 147.078947 
L 147.08364 147.078947 
L 147.969346 147.078947 
L 148.884576 147.078947 
L 149.799806 147.078947 
L 150.655988 147.078947 
L 151.571218 147.078947 
L 152.456924 147.078947 
L 153.372154 147.078947 
L 154.25786 147.078947 
L 155.17309 147.078947 
L 156.088319 147.078947 
L 156.974025 147.078947 
L 157.889255 147.078947 
L 158.774961 147.078947 
L 159.690191 147.078947 
L 160.605421 147.078947 
L 161.43208 147.078947 
L 162.347309 147.078947 
L 163.233016 147.078947 
L 164.148245 147.078947 
L 165.033951 147.078947 
L 165.949181 147.078947 
L 166.864411 147.078947 
L 167.750117 147.078947 
L 168.665347 147.078947 
L 169.551053 147.078947 
L 170.466283 147.078947 
L 171.381512 147.078947 
L 172.208171 147.078947 
L 173.123401 147.078947 
L 174.009107 147.078947 
L 174.924337 147.078947 
L 175.810043 147.078947 
L 176.725273 147.078947 
L 177.640502 147.078947 
L 178.526209 147.078947 
L 179.441438 147.078947 
L 180.327144 147.078947 
L 181.242374 147.078947 
L 182.157604 147.078947 
L 182.984263 147.078947 
L 183.899493 147.078947 
L 184.785199 147.078947 
L 185.700428 147.078947 
L 186.586135 147.078947 
L 187.501364 147.078947 
L 188.416594 147.078947 
L 189.3023 147.078947 
L 190.21753 147.078947 
L 191.103236 147.078947 
L 192.018466 147.078947 
L 192.933695 147.078947 
L 193.789878 147.078947 
L 194.705108 147.078947 
L 195.590814 147.078947 
L 196.506044 147.078947 
L 197.39175 147.078947 
L 198.306979 147.078947 
L 199.222209 147.078947 
L 200.107915 147.078947 
L 201.023145 147.078947 
L 201.908851 147.078947 
L 202.824081 147.078947 
L 203.73931 147.078947 
L 204.56597 147.078947 
L 205.481199 147.078947 
L 206.366905 147.078947 
L 207.282135 147.078947 
L 208.167841 147.078947 
L 209.083071 147.078947 
L 209.998301 147.078947 
L 210.884007 147.078947 
L 211.799236 147.078947 
L 212.684943 147.078947 
L 213.600172 147.078947 
L 214.515402 147.078947 
L 215.342061 147.078947 
L 216.257291 147.078947 
L 217.142997 147.078947 
L 218.058227 147.078947 
L 218.943933 147.078947 
L 219.859162 147.078947 
L 220.774392 147.078947 
L 221.660098 147.078947 
L 222.575328 147.078947 
L 223.461034 147.078947 
L 224.376264 147.078947 
L 225.291494 147.078947 
L 226.118153 147.078947 
L 227.033382 147.078947 
L 227.919089 147.078947 
L 228.834318 147.078947 
L 229.720024 147.078947 
L 230.635254 147.078947 
L 231.550484 147.078947 
L 232.43619 147.078947 
L 233.35142 147.078947 
L 234.237126 147.078947 
L 235.152355 147.078947 
L 236.067585 147.078947 
L 236.923768 147.078947 
L 237.838997 147.078947 
L 238.724704 147.078947 
L 239.639933 147.078947 
L 240.525639 147.078947 
L 241.440869 147.078947 
L 242.356099 147.078947 
L 243.241805 147.078947 
L 244.157035 147.078947 
L 245.042741 147.078947 
L 245.957971 147.078947 
L 246.8732 147.078947 
L 247.699859 147.078947 
L 248.615089 147.078947 
L 249.500795 147.078947 
L 250.416025 147.078947 
L 251.301731 147.078947 
L 252.216961 147.078947 
L 253.13219 147.078947 
L 254.017897 147.078947 
L 254.933126 147.078947 
L 255.818832 147.078947 
L 256.734062 147.078947 
L 257.649292 147.078947 
L 258.475951 147.078947 
L 259.391181 147.078947 
L 260.276887 147.078947 
L 261.192116 147.078947 
L 262.077823 147.078947 
L 262.993052 147.078947 
L 263.908282 147.078947 
L 264.793988 147.078947 
L 265.709218 147.078947 
L 266.594924 147.078947 
L 267.510154 147.078947 
L 268.425383 147.078947 
L 269.252042 147.078947 
L 270.167272 147.078947 
L 271.052978 147.078947 
L 271.968208 147.078947 
L 272.853914 147.078947 
L 273.769144 147.078947 
L 274.684374 147.078947 
L 275.57008 147.078947 
L 276.485309 147.078947 
L 277.371016 147.078947 
L 278.286245 147.078947 
L 279.201475 147.078947 
L 280.057658 147.078947 
L 280.972887 147.078947 
L 281.858593 147.078947 
L 282.773823 147.078947 
L 283.659529 147.078947 
L 284.574759 147.078947 
L 285.489989 147.078947 
L 286.375695 147.078947 
L 287.290924 147.078947 
L 288.176631 147.078947 
L 289.09186 147.078947 
L 290.00709 147.078947 
L 290.833749 147.078947 
L 291.748979 147.078947 
L 292.634685 147.078947 
L 293.549915 147.078947 
L 294.435621 147.078947 
L 295.350851 147.078947 
L 296.26608 147.078947 
L 297.151786 147.078947 
L 298.067016 147.078947 
L 298.952722 147.078947 
L 298.952722 168.067588 
L 298.952722 168.067588 
L 298.067016 168.067588 
L 297.151786 168.067588 
L 296.26608 168.067588 
L 295.350851 168.067588 
L 294.435621 168.067588 
L 293.549915 168.067588 
L 292.634685 168.067588 
L 291.748979 168.067588 
L 290.833749 168.067588 
L 290.00709 168.067588 
L 289.09186 168.067588 
L 288.176631 168.067588 
L 287.290924 168.067588 
L 286.375695 168.067588 
L 285.489989 168.067588 
L 284.574759 168.067588 
L 283.659529 168.067588 
L 282.773823 168.067588 
L 281.858593 168.067588 
L 280.972887 168.067588 
L 280.057658 168.067588 
L 279.201475 168.067588 
L 278.286245 168.067588 
L 277.371016 168.067588 
L 276.485309 168.067588 
L 275.57008 168.067588 
L 274.684374 168.067588 
L 273.769144 168.067588 
L 272.853914 168.067588 
L 271.968208 168.067588 
L 271.052978 168.067588 
L 270.167272 168.067588 
L 269.252042 168.025526 
L 268.425383 167.941404 
L 267.510154 167.857281 
L 266.594924 167.773158 
L 265.709218 167.689035 
L 264.793988 167.604912 
L 263.908282 167.562851 
L 262.993052 167.520789 
L 262.077823 167.478728 
L 261.192116 167.436667 
L 260.276887 167.394605 
L 259.391181 167.352544 
L 258.475951 167.352544 
L 257.649292 167.352544 
L 256.734062 167.352544 
L 255.818832 167.352544 
L 254.933126 167.352544 
L 254.017897 167.352544 
L 253.13219 167.352544 
L 252.216961 167.352544 
L 251.301731 167.352544 
L 250.416025 167.352544 
L 249.500795 167.352544 
L 248.615089 167.352544 
L 247.699859 167.352544 
L 246.8732 167.310482 
L 245.957971 167.268421 
L 245.042741 167.22636 
L 244.157035 167.184298 
L 243.241805 167.142237 
L 242.356099 167.142237 
L 241.440869 167.142237 
L 240.525639 167.142237 
L 239.639933 167.142237 
L 238.724704 167.142237 
L 237.838997 167.142237 
L 236.923768 167.142237 
L 236.067585 167.142237 
L 235.152355 167.142237 
L 234.237126 167.142237 
L 233.35142 167.142237 
L 232.43619 167.100175 
L 231.550484 167.058114 
L 230.635254 167.016053 
L 229.720024 166.973991 
L 228.834318 166.93193 
L 227.919089 166.889868 
L 227.033382 166.847807 
L 226.118153 166.805746 
L 225.291494 166.763684 
L 224.376264 166.721623 
L 223.461034 166.679561 
L 222.575328 166.6375 
L 221.660098 166.595439 
L 220.774392 166.553377 
L 219.859162 166.511316 
L 218.943933 166.427193 
L 218.058227 166.34307 
L 217.142997 166.258947 
L 216.257291 166.174825 
L 215.342061 166.090702 
L 214.515402 166.006579 
L 213.600172 165.922456 
L 212.684943 165.838333 
L 211.799236 165.754211 
L 210.884007 165.670088 
L 209.998301 165.585965 
L 209.083071 165.501842 
L 208.167841 165.417719 
L 207.282135 165.333596 
L 206.366905 165.249474 
L 205.481199 165.165351 
L 204.56597 165.081228 
L 203.73931 164.997105 
L 202.824081 164.912982 
L 201.908851 164.82886 
L 201.023145 164.744737 
L 200.107915 164.660614 
L 199.222209 164.576491 
L 198.306979 164.492368 
L 197.39175 164.408246 
L 196.506044 164.324123 
L 195.590814 164.24 
L 194.705108 164.155877 
L 193.789878 164.071754 
L 192.933695 163.987632 
L 192.018466 163.861447 
L 191.103236 163.735263 
L 190.21753 163.609079 
L 189.3023 163.482895 
L 188.416594 163.398772 
L 187.501364 163.314649 
L 186.586135 163.230526 
L 185.700428 163.146404 
L 184.785199 163.062281 
L 183.899493 162.978158 
L 182.984263 162.894035 
L 182.157604 162.809912 
L 181.242374 162.725789 
L 180.327144 162.641667 
L 179.441438 162.557544 
L 178.526209 162.473421 
L 177.640502 162.389298 
L 176.725273 162.305175 
L 175.810043 162.221053 
L 174.924337 162.13693 
L 174.009107 162.052807 
L 173.123401 161.968684 
L 172.208171 161.884561 
L 171.381512 161.800439 
L 170.466283 161.716316 
L 169.551053 161.632193 
L 168.665347 161.54807 
L 167.750117 161.463947 
L 166.864411 161.379825 
L 165.949181 161.295702 
L 165.033951 161.211579 
L 164.148245 161.127456 
L 163.233016 161.043333 
L 162.347309 160.959211 
L 161.43208 160.875088 
L 160.605421 160.748904 
L 159.690191 160.622719 
L 158.774961 160.496535 
L 157.889255 160.370351 
L 156.974025 160.244167 
L 156.088319 160.117982 
L 155.17309 159.991798 
L 154.25786 159.865614 
L 153.372154 159.73943 
L 152.456924 159.613246 
L 151.571218 159.487061 
L 150.655988 159.360877 
L 149.799806 159.234693 
L 148.884576 159.108509 
L 147.969346 158.982325 
L 147.08364 158.85614 
L 146.16841 158.729956 
L 145.282704 158.603772 
L 144.367474 158.477588 
L 143.452245 158.351404 
L 142.566539 158.225219 
L 141.651309 158.099035 
L 140.765603 157.972851 
L 139.850373 157.846667 
L 139.023714 157.720482 
L 138.108484 157.594298 
L 137.193255 157.468114 
L 136.307548 157.34193 
L 135.392319 157.215746 
L 134.506613 157.089561 
L 133.591383 156.963377 
L 132.676153 156.837193 
L 131.790447 156.711009 
L 130.875217 156.584825 
L 129.989511 156.45864 
L 129.074282 156.332456 
L 128.247622 156.206272 
L 127.332393 156.080088 
L 126.417163 155.953904 
L 125.531457 155.827719 
L 124.616227 155.701535 
L 123.730521 155.575351 
L 122.815291 155.449167 
L 121.900062 155.322982 
L 121.014356 155.196798 
L 120.099126 155.070614 
L 119.21342 154.94443 
L 118.29819 154.818246 
L 117.471531 154.692061 
L 116.556301 154.565877 
L 115.641071 154.481754 
L 114.755365 154.397632 
L 113.840136 154.313509 
L 112.954429 154.229386 
L 112.0392 154.145263 
L 111.12397 154.06114 
L 110.238264 153.977018 
L 109.323034 153.892895 
L 108.437328 153.808772 
L 107.522098 153.724649 
L 106.665916 153.640526 
L 105.750686 153.556404 
L 104.835456 153.472281 
L 103.94975 153.388158 
L 103.034521 153.304035 
L 102.148814 153.219912 
L 101.233585 153.135789 
L 100.318355 153.051667 
L 99.432649 152.967544 
L 98.517419 152.883421 
L 97.631713 152.799298 
L 96.716483 152.715175 
L 95.889824 152.631053 
L 94.974595 152.54693 
L 94.059365 152.462807 
L 93.173659 152.378684 
L 92.258429 152.294561 
L 91.372723 152.210439 
L 90.457493 152.126316 
L 89.542263 152.042193 
L 88.656557 151.95807 
L 87.741328 151.873947 
L 86.855621 151.789825 
L 85.940392 151.705702 
L 85.113733 151.621579 
L 84.198503 151.537456 
L 83.283273 151.453333 
L 82.397567 151.369211 
L 81.482337 151.285088 
L 80.596631 151.200965 
L 79.681402 151.116842 
L 78.766172 151.032719 
L 77.880466 150.948596 
L 76.965236 150.864474 
L 76.07953 150.780351 
L 75.1643 150.696228 
L 74.337641 150.612105 
L 73.422411 150.527982 
L 72.507182 150.44386 
L 71.621476 150.359737 
L 70.706246 150.275614 
L 69.82054 150.191491 
L 68.90531 150.107368 
L 67.99008 150.023246 
L 67.104374 149.939123 
L 66.189144 149.855 
L 65.303438 149.770877 
L 64.388209 149.686754 
L 63.532026 149.602632 
L 62.616796 149.518509 
z
" style="fill:#ff8c00;"/>
   </g>
   <g id="PolyCollection_5">
    <path clip-path="url(#pcf54915caa)" d="M 62.616796 149.518509 
L 62.616796 149.518509 
L 63.532026 149.602632 
L 64.388209 149.686754 
L 65.303438 149.770877 
L 66.189144 149.855 
L 67.104374 149.939123 
L 67.99008 150.023246 
L 68.90531 150.107368 
L 69.82054 150.191491 
L 70.706246 150.275614 
L 71.621476 150.359737 
L 72.507182 150.44386 
L 73.422411 150.527982 
L 74.337641 150.612105 
L 75.1643 150.696228 
L 76.07953 150.780351 
L 76.965236 150.864474 
L 77.880466 150.948596 
L 78.766172 151.032719 
L 79.681402 151.116842 
L 80.596631 151.200965 
L 81.482337 151.285088 
L 82.397567 151.369211 
L 83.283273 151.453333 
L 84.198503 151.537456 
L 85.113733 151.621579 
L 85.940392 151.705702 
L 86.855621 151.789825 
L 87.741328 151.873947 
L 88.656557 151.95807 
L 89.542263 152.042193 
L 90.457493 152.126316 
L 91.372723 152.210439 
L 92.258429 152.294561 
L 93.173659 152.378684 
L 94.059365 152.462807 
L 94.974595 152.54693 
L 95.889824 152.631053 
L 96.716483 152.715175 
L 97.631713 152.799298 
L 98.517419 152.883421 
L 99.432649 152.967544 
L 100.318355 153.051667 
L 101.233585 153.135789 
L 102.148814 153.219912 
L 103.034521 153.304035 
L 103.94975 153.388158 
L 104.835456 153.472281 
L 105.750686 153.556404 
L 106.665916 153.640526 
L 107.522098 153.724649 
L 108.437328 153.808772 
L 109.323034 153.892895 
L 110.238264 153.977018 
L 111.12397 154.06114 
L 112.0392 154.145263 
L 112.954429 154.229386 
L 113.840136 154.313509 
L 114.755365 154.397632 
L 115.641071 154.481754 
L 116.556301 154.565877 
L 117.471531 154.692061 
L 118.29819 154.818246 
L 119.21342 154.94443 
L 120.099126 155.070614 
L 121.014356 155.196798 
L 121.900062 155.322982 
L 122.815291 155.449167 
L 123.730521 155.575351 
L 124.616227 155.701535 
L 125.531457 155.827719 
L 126.417163 155.953904 
L 127.332393 156.080088 
L 128.247622 156.206272 
L 129.074282 156.332456 
L 129.989511 156.45864 
L 130.875217 156.584825 
L 131.790447 156.711009 
L 132.676153 156.837193 
L 133.591383 156.963377 
L 134.506613 157.089561 
L 135.392319 157.215746 
L 136.307548 157.34193 
L 137.193255 157.468114 
L 138.108484 157.594298 
L 139.023714 157.720482 
L 139.850373 157.846667 
L 140.765603 157.972851 
L 141.651309 158.099035 
L 142.566539 158.225219 
L 143.452245 158.351404 
L 144.367474 158.477588 
L 145.282704 158.603772 
L 146.16841 158.729956 
L 147.08364 158.85614 
L 147.969346 158.982325 
L 148.884576 159.108509 
L 149.799806 159.234693 
L 150.655988 159.360877 
L 151.571218 159.487061 
L 152.456924 159.613246 
L 153.372154 159.73943 
L 154.25786 159.865614 
L 155.17309 159.991798 
L 156.088319 160.117982 
L 156.974025 160.244167 
L 157.889255 160.370351 
L 158.774961 160.496535 
L 159.690191 160.622719 
L 160.605421 160.748904 
L 161.43208 160.875088 
L 162.347309 160.959211 
L 163.233016 161.043333 
L 164.148245 161.127456 
L 165.033951 161.211579 
L 165.949181 161.295702 
L 166.864411 161.379825 
L 167.750117 161.463947 
L 168.665347 161.54807 
L 169.551053 161.632193 
L 170.466283 161.716316 
L 171.381512 161.800439 
L 172.208171 161.884561 
L 173.123401 161.968684 
L 174.009107 162.052807 
L 174.924337 162.13693 
L 175.810043 162.221053 
L 176.725273 162.305175 
L 177.640502 162.389298 
L 178.526209 162.473421 
L 179.441438 162.557544 
L 180.327144 162.641667 
L 181.242374 162.725789 
L 182.157604 162.809912 
L 182.984263 162.894035 
L 183.899493 162.978158 
L 184.785199 163.062281 
L 185.700428 163.146404 
L 186.586135 163.230526 
L 187.501364 163.314649 
L 188.416594 163.398772 
L 189.3023 163.482895 
L 190.21753 163.609079 
L 191.103236 163.735263 
L 192.018466 163.861447 
L 192.933695 163.987632 
L 193.789878 164.071754 
L 194.705108 164.155877 
L 195.590814 164.24 
L 196.506044 164.324123 
L 197.39175 164.408246 
L 198.306979 164.492368 
L 199.222209 164.576491 
L 200.107915 164.660614 
L 201.023145 164.744737 
L 201.908851 164.82886 
L 202.824081 164.912982 
L 203.73931 164.997105 
L 204.56597 165.081228 
L 205.481199 165.165351 
L 206.366905 165.249474 
L 207.282135 165.333596 
L 208.167841 165.417719 
L 209.083071 165.501842 
L 209.998301 165.585965 
L 210.884007 165.670088 
L 211.799236 165.754211 
L 212.684943 165.838333 
L 213.600172 165.922456 
L 214.515402 166.006579 
L 215.342061 166.090702 
L 216.257291 166.174825 
L 217.142997 166.258947 
L 218.058227 166.34307 
L 218.943933 166.427193 
L 219.859162 166.511316 
L 220.774392 166.553377 
L 221.660098 166.595439 
L 222.575328 166.6375 
L 223.461034 166.679561 
L 224.376264 166.721623 
L 225.291494 166.763684 
L 226.118153 166.805746 
L 227.033382 166.847807 
L 227.919089 166.889868 
L 228.834318 166.93193 
L 229.720024 166.973991 
L 230.635254 167.016053 
L 231.550484 167.058114 
L 232.43619 167.100175 
L 233.35142 167.142237 
L 234.237126 167.142237 
L 235.152355 167.142237 
L 236.067585 167.142237 
L 236.923768 167.142237 
L 237.838997 167.142237 
L 238.724704 167.142237 
L 239.639933 167.142237 
L 240.525639 167.142237 
L 241.440869 167.142237 
L 242.356099 167.142237 
L 243.241805 167.142237 
L 244.157035 167.184298 
L 245.042741 167.22636 
L 245.957971 167.268421 
L 246.8732 167.310482 
L 247.699859 167.352544 
L 248.615089 167.352544 
L 249.500795 167.352544 
L 250.416025 167.352544 
L 251.301731 167.352544 
L 252.216961 167.352544 
L 253.13219 167.352544 
L 254.017897 167.352544 
L 254.933126 167.352544 
L 255.818832 167.352544 
L 256.734062 167.352544 
L 257.649292 167.352544 
L 258.475951 167.352544 
L 259.391181 167.352544 
L 260.276887 167.394605 
L 261.192116 167.436667 
L 262.077823 167.478728 
L 262.993052 167.520789 
L 263.908282 167.562851 
L 264.793988 167.604912 
L 265.709218 167.689035 
L 266.594924 167.773158 
L 267.510154 167.857281 
L 268.425383 167.941404 
L 269.252042 168.025526 
L 270.167272 168.067588 
L 271.052978 168.067588 
L 271.968208 168.067588 
L 272.853914 168.067588 
L 273.769144 168.067588 
L 274.684374 168.067588 
L 275.57008 168.067588 
L 276.485309 168.067588 
L 277.371016 168.067588 
L 278.286245 168.067588 
L 279.201475 168.067588 
L 280.057658 168.067588 
L 280.972887 168.067588 
L 281.858593 168.067588 
L 282.773823 168.067588 
L 283.659529 168.067588 
L 284.574759 168.067588 
L 285.489989 168.067588 
L 286.375695 168.067588 
L 287.290924 168.067588 
L 288.176631 168.067588 
L 289.09186 168.067588 
L 290.00709 168.067588 
L 290.833749 168.067588 
L 291.748979 168.067588 
L 292.634685 168.067588 
L 293.549915 168.067588 
L 294.435621 168.067588 
L 295.350851 168.067588 
L 296.26608 168.067588 
L 297.151786 168.067588 
L 298.067016 168.067588 
L 298.952722 168.067588 
L 298.952722 170.423026 
L 298.952722 170.423026 
L 298.067016 170.380965 
L 297.151786 170.338904 
L 296.26608 170.296842 
L 295.350851 170.254781 
L 294.435621 170.212719 
L 293.549915 170.170658 
L 292.634685 170.128596 
L 291.748979 170.086535 
L 290.833749 170.044474 
L 290.00709 170.002412 
L 289.09186 169.960351 
L 288.176631 169.918289 
L 287.290924 169.876228 
L 286.375695 169.834167 
L 285.489989 169.792105 
L 284.574759 169.750044 
L 283.659529 169.707982 
L 282.773823 169.665921 
L 281.858593 169.62386 
L 280.972887 169.581798 
L 280.057658 169.539737 
L 279.201475 169.497675 
L 278.286245 169.455614 
L 277.371016 169.413553 
L 276.485309 169.371491 
L 275.57008 169.32943 
L 274.684374 169.287368 
L 273.769144 169.245307 
L 272.853914 169.203246 
L 271.968208 169.161184 
L 271.052978 169.119123 
L 270.167272 169.077061 
L 269.252042 168.992939 
L 268.425383 168.866754 
L 267.510154 168.74057 
L 266.594924 168.614386 
L 265.709218 168.530263 
L 264.793988 168.44614 
L 263.908282 168.404079 
L 262.993052 168.362018 
L 262.077823 168.319956 
L 261.192116 168.277895 
L 260.276887 168.235833 
L 259.391181 168.193772 
L 258.475951 168.193772 
L 257.649292 168.193772 
L 256.734062 168.151711 
L 255.818832 168.151711 
L 254.933126 168.151711 
L 254.017897 168.151711 
L 253.13219 168.151711 
L 252.216961 168.151711 
L 251.301731 168.151711 
L 250.416025 168.151711 
L 249.500795 168.151711 
L 248.615089 168.151711 
L 247.699859 168.109649 
L 246.8732 167.983465 
L 245.957971 167.857281 
L 245.042741 167.731096 
L 244.157035 167.604912 
L 243.241805 167.478728 
L 242.356099 167.436667 
L 241.440869 167.394605 
L 240.525639 167.352544 
L 239.639933 167.310482 
L 238.724704 167.268421 
L 237.838997 167.22636 
L 236.923768 167.142237 
L 236.067585 167.142237 
L 235.152355 167.142237 
L 234.237126 167.142237 
L 233.35142 167.142237 
L 232.43619 167.100175 
L 231.550484 167.058114 
L 230.635254 167.016053 
L 229.720024 166.973991 
L 228.834318 166.93193 
L 227.919089 166.889868 
L 227.033382 166.847807 
L 226.118153 166.805746 
L 225.291494 166.763684 
L 224.376264 166.721623 
L 223.461034 166.679561 
L 222.575328 166.6375 
L 221.660098 166.595439 
L 220.774392 166.553377 
L 219.859162 166.511316 
L 218.943933 166.427193 
L 218.058227 166.34307 
L 217.142997 166.258947 
L 216.257291 166.174825 
L 215.342061 166.090702 
L 214.515402 166.006579 
L 213.600172 165.922456 
L 212.684943 165.838333 
L 211.799236 165.754211 
L 210.884007 165.670088 
L 209.998301 165.585965 
L 209.083071 165.501842 
L 208.167841 165.417719 
L 207.282135 165.333596 
L 206.366905 165.249474 
L 205.481199 165.165351 
L 204.56597 165.081228 
L 203.73931 164.997105 
L 202.824081 164.912982 
L 201.908851 164.82886 
L 201.023145 164.744737 
L 200.107915 164.660614 
L 199.222209 164.576491 
L 198.306979 164.492368 
L 197.39175 164.408246 
L 196.506044 164.324123 
L 195.590814 164.24 
L 194.705108 164.155877 
L 193.789878 164.071754 
L 192.933695 163.987632 
L 192.018466 163.861447 
L 191.103236 163.735263 
L 190.21753 163.609079 
L 189.3023 163.482895 
L 188.416594 163.398772 
L 187.501364 163.314649 
L 186.586135 163.230526 
L 185.700428 163.146404 
L 184.785199 163.062281 
L 183.899493 162.978158 
L 182.984263 162.894035 
L 182.157604 162.809912 
L 181.242374 162.725789 
L 180.327144 162.641667 
L 179.441438 162.557544 
L 178.526209 162.473421 
L 177.640502 162.389298 
L 176.725273 162.305175 
L 175.810043 162.221053 
L 174.924337 162.13693 
L 174.009107 162.052807 
L 173.123401 161.968684 
L 172.208171 161.884561 
L 171.381512 161.800439 
L 170.466283 161.716316 
L 169.551053 161.632193 
L 168.665347 161.54807 
L 167.750117 161.463947 
L 166.864411 161.379825 
L 165.949181 161.295702 
L 165.033951 161.211579 
L 164.148245 161.127456 
L 163.233016 161.043333 
L 162.347309 160.959211 
L 161.43208 160.875088 
L 160.605421 160.748904 
L 159.690191 160.622719 
L 158.774961 160.496535 
L 157.889255 160.370351 
L 156.974025 160.244167 
L 156.088319 160.117982 
L 155.17309 159.991798 
L 154.25786 159.865614 
L 153.372154 159.73943 
L 152.456924 159.613246 
L 151.571218 159.487061 
L 150.655988 159.360877 
L 149.799806 159.234693 
L 148.884576 159.108509 
L 147.969346 158.982325 
L 147.08364 158.85614 
L 146.16841 158.729956 
L 145.282704 158.603772 
L 144.367474 158.477588 
L 143.452245 158.351404 
L 142.566539 158.225219 
L 141.651309 158.099035 
L 140.765603 157.972851 
L 139.850373 157.846667 
L 139.023714 157.720482 
L 138.108484 157.594298 
L 137.193255 157.468114 
L 136.307548 157.34193 
L 135.392319 157.215746 
L 134.506613 157.089561 
L 133.591383 156.963377 
L 132.676153 156.837193 
L 131.790447 156.711009 
L 130.875217 156.584825 
L 129.989511 156.45864 
L 129.074282 156.332456 
L 128.247622 156.206272 
L 127.332393 156.080088 
L 126.417163 155.953904 
L 125.531457 155.827719 
L 124.616227 155.701535 
L 123.730521 155.575351 
L 122.815291 155.449167 
L 121.900062 155.322982 
L 121.014356 155.196798 
L 120.099126 155.070614 
L 119.21342 154.94443 
L 118.29819 154.818246 
L 117.471531 154.692061 
L 116.556301 154.565877 
L 115.641071 154.481754 
L 114.755365 154.397632 
L 113.840136 154.313509 
L 112.954429 154.229386 
L 112.0392 154.145263 
L 111.12397 154.06114 
L 110.238264 153.977018 
L 109.323034 153.892895 
L 108.437328 153.808772 
L 107.522098 153.724649 
L 106.665916 153.640526 
L 105.750686 153.556404 
L 104.835456 153.472281 
L 103.94975 153.388158 
L 103.034521 153.304035 
L 102.148814 153.219912 
L 101.233585 153.135789 
L 100.318355 153.051667 
L 99.432649 152.967544 
L 98.517419 152.883421 
L 97.631713 152.799298 
L 96.716483 152.715175 
L 95.889824 152.631053 
L 94.974595 152.54693 
L 94.059365 152.462807 
L 93.173659 152.378684 
L 92.258429 152.294561 
L 91.372723 152.210439 
L 90.457493 152.126316 
L 89.542263 152.042193 
L 88.656557 151.95807 
L 87.741328 151.873947 
L 86.855621 151.789825 
L 85.940392 151.705702 
L 85.113733 151.621579 
L 84.198503 151.537456 
L 83.283273 151.453333 
L 82.397567 151.369211 
L 81.482337 151.285088 
L 80.596631 151.200965 
L 79.681402 151.116842 
L 78.766172 151.032719 
L 77.880466 150.948596 
L 76.965236 150.864474 
L 76.07953 150.780351 
L 75.1643 150.696228 
L 74.337641 150.612105 
L 73.422411 150.527982 
L 72.507182 150.44386 
L 71.621476 150.359737 
L 70.706246 150.275614 
L 69.82054 150.191491 
L 68.90531 150.107368 
L 67.99008 150.023246 
L 67.104374 149.939123 
L 66.189144 149.855 
L 65.303438 149.770877 
L 64.388209 149.686754 
L 63.532026 149.602632 
L 62.616796 149.518509 
z
" style="fill:#90ee90;"/>
   </g>
   <g id="PolyCollection_6">
    <path clip-path="url(#pcf54915caa)" d="M 62.616796 149.518509 
L 62.616796 149.518509 
L 63.532026 149.602632 
L 64.388209 149.686754 
L 65.303438 149.770877 
L 66.189144 149.855 
L 67.104374 149.939123 
L 67.99008 150.023246 
L 68.90531 150.107368 
L 69.82054 150.191491 
L 70.706246 150.275614 
L 71.621476 150.359737 
L 72.507182 150.44386 
L 73.422411 150.527982 
L 74.337641 150.612105 
L 75.1643 150.696228 
L 76.07953 150.780351 
L 76.965236 150.864474 
L 77.880466 150.948596 
L 78.766172 151.032719 
L 79.681402 151.116842 
L 80.596631 151.200965 
L 81.482337 151.285088 
L 82.397567 151.369211 
L 83.283273 151.453333 
L 84.198503 151.537456 
L 85.113733 151.621579 
L 85.940392 151.705702 
L 86.855621 151.789825 
L 87.741328 151.873947 
L 88.656557 151.95807 
L 89.542263 152.042193 
L 90.457493 152.126316 
L 91.372723 152.210439 
L 92.258429 152.294561 
L 93.173659 152.378684 
L 94.059365 152.462807 
L 94.974595 152.54693 
L 95.889824 152.631053 
L 96.716483 152.715175 
L 97.631713 152.799298 
L 98.517419 152.883421 
L 99.432649 152.967544 
L 100.318355 153.051667 
L 101.233585 153.135789 
L 102.148814 153.219912 
L 103.034521 153.304035 
L 103.94975 153.388158 
L 104.835456 153.472281 
L 105.750686 153.556404 
L 106.665916 153.640526 
L 107.522098 153.724649 
L 108.437328 153.808772 
L 109.323034 153.892895 
L 110.238264 153.977018 
L 111.12397 154.06114 
L 112.0392 154.145263 
L 112.954429 154.229386 
L 113.840136 154.313509 
L 114.755365 154.397632 
L 115.641071 154.481754 
L 116.556301 154.565877 
L 117.471531 154.692061 
L 118.29819 154.818246 
L 119.21342 154.94443 
L 120.099126 155.070614 
L 121.014356 155.196798 
L 121.900062 155.322982 
L 122.815291 155.449167 
L 123.730521 155.575351 
L 124.616227 155.701535 
L 125.531457 155.827719 
L 126.417163 155.953904 
L 127.332393 156.080088 
L 128.247622 156.206272 
L 129.074282 156.332456 
L 129.989511 156.45864 
L 130.875217 156.584825 
L 131.790447 156.711009 
L 132.676153 156.837193 
L 133.591383 156.963377 
L 134.506613 157.089561 
L 135.392319 157.215746 
L 136.307548 157.34193 
L 137.193255 157.468114 
L 138.108484 157.594298 
L 139.023714 157.720482 
L 139.850373 157.846667 
L 140.765603 157.972851 
L 141.651309 158.099035 
L 142.566539 158.225219 
L 143.452245 158.351404 
L 144.367474 158.477588 
L 145.282704 158.603772 
L 146.16841 158.729956 
L 147.08364 158.85614 
L 147.969346 158.982325 
L 148.884576 159.108509 
L 149.799806 159.234693 
L 150.655988 159.360877 
L 151.571218 159.487061 
L 152.456924 159.613246 
L 153.372154 159.73943 
L 154.25786 159.865614 
L 155.17309 159.991798 
L 156.088319 160.117982 
L 156.974025 160.244167 
L 157.889255 160.370351 
L 158.774961 160.496535 
L 159.690191 160.622719 
L 160.605421 160.748904 
L 161.43208 160.875088 
L 162.347309 160.959211 
L 163.233016 161.043333 
L 164.148245 161.127456 
L 165.033951 161.211579 
L 165.949181 161.295702 
L 166.864411 161.379825 
L 167.750117 161.463947 
L 168.665347 161.54807 
L 169.551053 161.632193 
L 170.466283 161.716316 
L 171.381512 161.800439 
L 172.208171 161.884561 
L 173.123401 161.968684 
L 174.009107 162.052807 
L 174.924337 162.13693 
L 175.810043 162.221053 
L 176.725273 162.305175 
L 177.640502 162.389298 
L 178.526209 162.473421 
L 179.441438 162.557544 
L 180.327144 162.641667 
L 181.242374 162.725789 
L 182.157604 162.809912 
L 182.984263 162.894035 
L 183.899493 162.978158 
L 184.785199 163.062281 
L 185.700428 163.146404 
L 186.586135 163.230526 
L 187.501364 163.314649 
L 188.416594 163.398772 
L 189.3023 163.482895 
L 190.21753 163.609079 
L 191.103236 163.735263 
L 192.018466 163.861447 
L 192.933695 163.987632 
L 193.789878 164.071754 
L 194.705108 164.155877 
L 195.590814 164.24 
L 196.506044 164.324123 
L 197.39175 164.408246 
L 198.306979 164.492368 
L 199.222209 164.576491 
L 200.107915 164.660614 
L 201.023145 164.744737 
L 201.908851 164.82886 
L 202.824081 164.912982 
L 203.73931 164.997105 
L 204.56597 165.081228 
L 205.481199 165.165351 
L 206.366905 165.249474 
L 207.282135 165.333596 
L 208.167841 165.417719 
L 209.083071 165.501842 
L 209.998301 165.585965 
L 210.884007 165.670088 
L 211.799236 165.754211 
L 212.684943 165.838333 
L 213.600172 165.922456 
L 214.515402 166.006579 
L 215.342061 166.090702 
L 216.257291 166.174825 
L 217.142997 166.258947 
L 218.058227 166.34307 
L 218.943933 166.427193 
L 219.859162 166.511316 
L 220.774392 166.553377 
L 221.660098 166.595439 
L 222.575328 166.6375 
L 223.461034 166.679561 
L 224.376264 166.721623 
L 225.291494 166.763684 
L 226.118153 166.805746 
L 227.033382 166.847807 
L 227.919089 166.889868 
L 228.834318 166.93193 
L 229.720024 166.973991 
L 230.635254 167.016053 
L 231.550484 167.058114 
L 232.43619 167.100175 
L 233.35142 167.142237 
L 234.237126 167.142237 
L 235.152355 167.142237 
L 236.067585 167.142237 
L 236.923768 167.142237 
L 237.838997 167.22636 
L 238.724704 167.268421 
L 239.639933 167.310482 
L 240.525639 167.352544 
L 241.440869 167.394605 
L 242.356099 167.436667 
L 243.241805 167.478728 
L 244.157035 167.604912 
L 245.042741 167.731096 
L 245.957971 167.857281 
L 246.8732 167.983465 
L 247.699859 168.109649 
L 248.615089 168.151711 
L 249.500795 168.151711 
L 250.416025 168.151711 
L 251.301731 168.151711 
L 252.216961 168.151711 
L 253.13219 168.151711 
L 254.017897 168.151711 
L 254.933126 168.151711 
L 255.818832 168.151711 
L 256.734062 168.151711 
L 257.649292 168.193772 
L 258.475951 168.193772 
L 259.391181 168.193772 
L 260.276887 168.235833 
L 261.192116 168.277895 
L 262.077823 168.319956 
L 262.993052 168.362018 
L 263.908282 168.404079 
L 264.793988 168.44614 
L 265.709218 168.530263 
L 266.594924 168.614386 
L 267.510154 168.74057 
L 268.425383 168.866754 
L 269.252042 168.992939 
L 270.167272 169.077061 
L 271.052978 169.119123 
L 271.968208 169.161184 
L 272.853914 169.203246 
L 273.769144 169.245307 
L 274.684374 169.287368 
L 275.57008 169.32943 
L 276.485309 169.371491 
L 277.371016 169.413553 
L 278.286245 169.455614 
L 279.201475 169.497675 
L 280.057658 169.539737 
L 280.972887 169.581798 
L 281.858593 169.62386 
L 282.773823 169.665921 
L 283.659529 169.707982 
L 284.574759 169.750044 
L 285.489989 169.792105 
L 286.375695 169.834167 
L 287.290924 169.876228 
L 288.176631 169.918289 
L 289.09186 169.960351 
L 290.00709 170.002412 
L 290.833749 170.044474 
L 291.748979 170.086535 
L 292.634685 170.128596 
L 293.549915 170.170658 
L 294.435621 170.212719 
L 295.350851 170.254781 
L 296.26608 170.296842 
L 297.151786 170.338904 
L 298.067016 170.380965 
L 298.952722 170.423026 
L 298.952722 170.969825 
L 298.952722 170.969825 
L 298.067016 170.927763 
L 297.151786 170.885702 
L 296.26608 170.84364 
L 295.350851 170.801579 
L 294.435621 170.759518 
L 293.549915 170.717456 
L 292.634685 170.675395 
L 291.748979 170.633333 
L 290.833749 170.591272 
L 290.00709 170.549211 
L 289.09186 170.507149 
L 288.176631 170.465088 
L 287.290924 170.423026 
L 286.375695 170.380965 
L 285.489989 170.338904 
L 284.574759 170.296842 
L 283.659529 170.254781 
L 282.773823 170.212719 
L 281.858593 170.170658 
L 280.972887 170.128596 
L 280.057658 170.086535 
L 279.201475 170.044474 
L 278.286245 170.002412 
L 277.371016 169.960351 
L 276.485309 169.918289 
L 275.57008 169.876228 
L 274.684374 169.834167 
L 273.769144 169.792105 
L 272.853914 169.750044 
L 271.968208 169.707982 
L 271.052978 169.665921 
L 270.167272 169.62386 
L 269.252042 169.539737 
L 268.425383 169.413553 
L 267.510154 169.287368 
L 266.594924 169.161184 
L 265.709218 169.077061 
L 264.793988 168.992939 
L 263.908282 168.950877 
L 262.993052 168.908816 
L 262.077823 168.866754 
L 261.192116 168.824693 
L 260.276887 168.782632 
L 259.391181 168.74057 
L 258.475951 168.74057 
L 257.649292 168.74057 
L 256.734062 168.698509 
L 255.818832 168.698509 
L 254.933126 168.698509 
L 254.017897 168.698509 
L 253.13219 168.698509 
L 252.216961 168.698509 
L 251.301731 168.698509 
L 250.416025 168.698509 
L 249.500795 168.698509 
L 248.615089 168.698509 
L 247.699859 168.656447 
L 246.8732 168.530263 
L 245.957971 168.404079 
L 245.042741 168.235833 
L 244.157035 168.067588 
L 243.241805 167.899342 
L 242.356099 167.815219 
L 241.440869 167.731096 
L 240.525639 167.646974 
L 239.639933 167.562851 
L 238.724704 167.478728 
L 237.838997 167.394605 
L 236.923768 167.268421 
L 236.067585 167.22636 
L 235.152355 167.184298 
L 234.237126 167.142237 
L 233.35142 167.142237 
L 232.43619 167.100175 
L 231.550484 167.058114 
L 230.635254 167.016053 
L 229.720024 166.973991 
L 228.834318 166.93193 
L 227.919089 166.889868 
L 227.033382 166.847807 
L 226.118153 166.805746 
L 225.291494 166.763684 
L 224.376264 166.721623 
L 223.461034 166.679561 
L 222.575328 166.6375 
L 221.660098 166.595439 
L 220.774392 166.553377 
L 219.859162 166.511316 
L 218.943933 166.427193 
L 218.058227 166.34307 
L 217.142997 166.258947 
L 216.257291 166.174825 
L 215.342061 166.090702 
L 214.515402 166.006579 
L 213.600172 165.922456 
L 212.684943 165.838333 
L 211.799236 165.754211 
L 210.884007 165.670088 
L 209.998301 165.585965 
L 209.083071 165.501842 
L 208.167841 165.417719 
L 207.282135 165.333596 
L 206.366905 165.249474 
L 205.481199 165.165351 
L 204.56597 165.081228 
L 203.73931 164.997105 
L 202.824081 164.912982 
L 201.908851 164.82886 
L 201.023145 164.744737 
L 200.107915 164.660614 
L 199.222209 164.576491 
L 198.306979 164.492368 
L 197.39175 164.408246 
L 196.506044 164.324123 
L 195.590814 164.24 
L 194.705108 164.155877 
L 193.789878 164.071754 
L 192.933695 163.987632 
L 192.018466 163.861447 
L 191.103236 163.735263 
L 190.21753 163.609079 
L 189.3023 163.482895 
L 188.416594 163.398772 
L 187.501364 163.314649 
L 186.586135 163.230526 
L 185.700428 163.146404 
L 184.785199 163.062281 
L 183.899493 162.978158 
L 182.984263 162.894035 
L 182.157604 162.809912 
L 181.242374 162.725789 
L 180.327144 162.641667 
L 179.441438 162.557544 
L 178.526209 162.473421 
L 177.640502 162.389298 
L 176.725273 162.305175 
L 175.810043 162.221053 
L 174.924337 162.13693 
L 174.009107 162.052807 
L 173.123401 161.968684 
L 172.208171 161.884561 
L 171.381512 161.800439 
L 170.466283 161.716316 
L 169.551053 161.632193 
L 168.665347 161.54807 
L 167.750117 161.463947 
L 166.864411 161.379825 
L 165.949181 161.295702 
L 165.033951 161.211579 
L 164.148245 161.127456 
L 163.233016 161.043333 
L 162.347309 160.959211 
L 161.43208 160.875088 
L 160.605421 160.748904 
L 159.690191 160.622719 
L 158.774961 160.496535 
L 157.889255 160.370351 
L 156.974025 160.244167 
L 156.088319 160.117982 
L 155.17309 159.991798 
L 154.25786 159.865614 
L 153.372154 159.73943 
L 152.456924 159.613246 
L 151.571218 159.487061 
L 150.655988 159.360877 
L 149.799806 159.234693 
L 148.884576 159.108509 
L 147.969346 158.982325 
L 147.08364 158.85614 
L 146.16841 158.729956 
L 145.282704 158.603772 
L 144.367474 158.477588 
L 143.452245 158.351404 
L 142.566539 158.225219 
L 141.651309 158.099035 
L 140.765603 157.972851 
L 139.850373 157.846667 
L 139.023714 157.720482 
L 138.108484 157.594298 
L 137.193255 157.468114 
L 136.307548 157.34193 
L 135.392319 157.215746 
L 134.506613 157.089561 
L 133.591383 156.963377 
L 132.676153 156.837193 
L 131.790447 156.711009 
L 130.875217 156.584825 
L 129.989511 156.45864 
L 129.074282 156.332456 
L 128.247622 156.206272 
L 127.332393 156.080088 
L 126.417163 155.953904 
L 125.531457 155.827719 
L 124.616227 155.701535 
L 123.730521 155.575351 
L 122.815291 155.449167 
L 121.900062 155.322982 
L 121.014356 155.196798 
L 120.099126 155.070614 
L 119.21342 154.94443 
L 118.29819 154.818246 
L 117.471531 154.692061 
L 116.556301 154.565877 
L 115.641071 154.481754 
L 114.755365 154.397632 
L 113.840136 154.313509 
L 112.954429 154.229386 
L 112.0392 154.145263 
L 111.12397 154.06114 
L 110.238264 153.977018 
L 109.323034 153.892895 
L 108.437328 153.808772 
L 107.522098 153.724649 
L 106.665916 153.640526 
L 105.750686 153.556404 
L 104.835456 153.472281 
L 103.94975 153.388158 
L 103.034521 153.304035 
L 102.148814 153.219912 
L 101.233585 153.135789 
L 100.318355 153.051667 
L 99.432649 152.967544 
L 98.517419 152.883421 
L 97.631713 152.799298 
L 96.716483 152.715175 
L 95.889824 152.631053 
L 94.974595 152.54693 
L 94.059365 152.462807 
L 93.173659 152.378684 
L 92.258429 152.294561 
L 91.372723 152.210439 
L 90.457493 152.126316 
L 89.542263 152.042193 
L 88.656557 151.95807 
L 87.741328 151.873947 
L 86.855621 151.789825 
L 85.940392 151.705702 
L 85.113733 151.621579 
L 84.198503 151.537456 
L 83.283273 151.453333 
L 82.397567 151.369211 
L 81.482337 151.285088 
L 80.596631 151.200965 
L 79.681402 151.116842 
L 78.766172 151.032719 
L 77.880466 150.948596 
L 76.965236 150.864474 
L 76.07953 150.780351 
L 75.1643 150.696228 
L 74.337641 150.612105 
L 73.422411 150.527982 
L 72.507182 150.44386 
L 71.621476 150.359737 
L 70.706246 150.275614 
L 69.82054 150.191491 
L 68.90531 150.107368 
L 67.99008 150.023246 
L 67.104374 149.939123 
L 66.189144 149.855 
L 65.303438 149.770877 
L 64.388209 149.686754 
L 63.532026 149.602632 
L 62.616796 149.518509 
z
" style="fill:#c0c0c0;"/>
   </g>
   <g id="matplotlib.axis_1">
    <g id="xtick_1">
     <g id="line2d_1">
      <defs>
       <path d="M 0 0 
L 0 3.5 
" id="mdc6469e662" style="stroke:#000000;stroke-width:0.8;"/>
      </defs>
      <g>
       <use style="stroke:#000000;stroke-width:0.8;" x="62.616796" xlink:href="#mdc6469e662" y="202.6"/>
      </g>
     </g>
     <g id="text_1">
      <text style="font-family:DejaVu Sans;font-size:10px;font-stretch:normal;font-style:normal;font-weight:normal;text-anchor:middle;" transform="rotate(-0, 62.616796, 217.198438)" x="62.616796" y="217.198438">2000</text>
     </g>
    </g>
    <g id="xtick_2">
     <g id="line2d_2">
      <g>
       <use style="stroke:#000000;stroke-width:0.8;" x="105.750686" xlink:href="#mdc6469e662" y="202.6"/>
      </g>
     </g>
     <g id="text_2">
      <text style="font-family:DejaVu Sans;font-size:10px;font-stretch:normal;font-style:normal;font-weight:normal;text-anchor:middle;" transform="rotate(-0, 105.750686, 217.198438)" x="105.750686" y="217.198438">2004</text>
     </g>
    </g>
    <g id="xtick_3">
     <g id="line2d_3">
      <g>
       <use style="stroke:#000000;stroke-width:0.8;" x="148.884576" xlink:href="#mdc6469e662" y="202.6"/>
      </g>
     </g>
     <g id="text_3">
      <text style="font-family:DejaVu Sans;font-size:10px;font-stretch:normal;font-style:normal;font-weight:normal;text-anchor:middle;" transform="rotate(-0, 148.884576, 217.198438)" x="148.884576" y="217.198438">2008</text>
     </g>
    </g>
    <g id="xtick_4">
     <g id="line2d_4">
      <g>
       <use style="stroke:#000000;stroke-width:0.8;" x="192.018466" xlink:href="#mdc6469e662" y="202.6"/>
      </g>
     </g>
     <g id="text_4">
      <text style="font-family:DejaVu Sans;font-size:10px;font-stretch:normal;font-style:normal;font-weight:normal;text-anchor:middle;" transform="rotate(-0, 192.018466, 217.198438)" x="192.018466" y="217.198438">2012</text>
     </g>
    </g>
    <g id="xtick_5">
     <g id="line2d_5">
      <g>
       <use style="stroke:#000000;stroke-width:0.8;" x="235.152355" xlink:href="#mdc6469e662" y="202.6"/>
      </g>
     </g>
     <g id="text_5">
      <text style="font-family:DejaVu Sans;font-size:10px;font-stretch:normal;font-style:normal;font-weight:normal;text-anchor:middle;" transform="rotate(-0, 235.152355, 217.198438)" x="235.152355" y="217.198438">2016</text>
     </g>
    </g>
    <g id="xtick_6">
     <g id="line2d_6">
      <g>
       <use style="stroke:#000000;stroke-width:0.8;" x="278.286245" xlink:href="#mdc6469e662" y="202.6"/>
      </g>
     </g>
     <g id="text_6">
      <text style="font-family:DejaVu Sans;font-size:10px;font-stretch:normal;font-style:normal;font-weight:normal;text-anchor:middle;" transform="rotate(-0, 278.286245, 217.198438)" x="278.286245" y="217.198438">2020</text>
     </g>
    </g>
    <g id="xtick_7">
     <g id="line2d_7">
      <g>
       <use style="stroke:#000000;stroke-width:0.8;" x="321.420135" xlink:href="#mdc6469e662" y="202.6"/>
      </g>
     </g>
     <g id="text_7">
      <text style="font-family:DejaVu Sans;font-size:10px;font-stretch:normal;font-style:normal;font-weight:normal;text-anchor:middle;" transform="rotate(-0, 321.420135, 217.198438)" x="321.420135" y="217.198438">2024</text>
     </g>
    </g>
    <g id="xtick_8">
     <g id="line2d_8">
      <defs>
       <path d="M 0 0 
L 0 2 
" id="me7f4416dae" style="stroke:#000000;stroke-width:0.6;"/>
      </defs>
      <g>
       <use style="stroke:#000000;stroke-width:0.6;" x="51.833324" xlink:href="#me7f4416dae" y="202.6"/>
      </g>
     </g>
    </g>
    <g id="xtick_9">
     <g id="line2d_9">
      <g>
       <use style="stroke:#000000;stroke-width:0.6;" x="73.400269" xlink:href="#me7f4416dae" y="202.6"/>
      </g>
     </g>
    </g>
    <g id="xtick_10">
     <g id="line2d_10">
      <g>
       <use style="stroke:#000000;stroke-width:0.6;" x="84.183741" xlink:href="#me7f4416dae" y="202.6"/>
      </g>
     </g>
    </g>
    <g id="xtick_11">
     <g id="line2d_11">
      <g>
       <use style="stroke:#000000;stroke-width:0.6;" x="94.967214" xlink:href="#me7f4416dae" y="202.6"/>
      </g>
     </g>
    </g>
    <g id="xtick_12">
     <g id="line2d_12">
      <g>
       <use style="stroke:#000000;stroke-width:0.6;" x="116.534159" xlink:href="#me7f4416dae" y="202.6"/>
      </g>
     </g>
    </g>
    <g id="xtick_13">
     <g id="line2d_13">
      <g>
       <use style="stroke:#000000;stroke-width:0.6;" x="127.317631" xlink:href="#me7f4416dae" y="202.6"/>
      </g>
     </g>
    </g>
    <g id="xtick_14">
     <g id="line2d_14">
      <g>
       <use style="stroke:#000000;stroke-width:0.6;" x="138.101103" xlink:href="#me7f4416dae" y="202.6"/>
      </g>
     </g>
    </g>
    <g id="xtick_15">
     <g id="line2d_15">
      <g>
       <use style="stroke:#000000;stroke-width:0.6;" x="159.668048" xlink:href="#me7f4416dae" y="202.6"/>
      </g>
     </g>
    </g>
    <g id="xtick_16">
     <g id="line2d_16">
      <g>
       <use style="stroke:#000000;stroke-width:0.6;" x="170.451521" xlink:href="#me7f4416dae" y="202.6"/>
      </g>
     </g>
    </g>
    <g id="xtick_17">
     <g id="line2d_17">
      <g>
       <use style="stroke:#000000;stroke-width:0.6;" x="181.234993" xlink:href="#me7f4416dae" y="202.6"/>
      </g>
     </g>
    </g>
    <g id="xtick_18">
     <g id="line2d_18">
      <g>
       <use style="stroke:#000000;stroke-width:0.6;" x="202.801938" xlink:href="#me7f4416dae" y="202.6"/>
      </g>
     </g>
    </g>
    <g id="xtick_19">
     <g id="line2d_19">
      <g>
       <use style="stroke:#000000;stroke-width:0.6;" x="213.585411" xlink:href="#me7f4416dae" y="202.6"/>
      </g>
     </g>
    </g>
    <g id="xtick_20">
     <g id="line2d_20">
      <g>
       <use style="stroke:#000000;stroke-width:0.6;" x="224.368883" xlink:href="#me7f4416dae" y="202.6"/>
      </g>
     </g>
    </g>
    <g id="xtick_21">
     <g id="line2d_21">
      <g>
       <use style="stroke:#000000;stroke-width:0.6;" x="245.935828" xlink:href="#me7f4416dae" y="202.6"/>
      </g>
     </g>
    </g>
    <g id="xtick_22">
     <g id="line2d_22">
      <g>
       <use style="stroke:#000000;stroke-width:0.6;" x="256.7193" xlink:href="#me7f4416dae" y="202.6"/>
      </g>
     </g>
    </g>
    <g id="xtick_23">
     <g id="line2d_23">
      <g>
       <use style="stroke:#000000;stroke-width:0.6;" x="267.502773" xlink:href="#me7f4416dae" y="202.6"/>
      </g>
     </g>
    </g>
    <g id="xtick_24">
     <g id="line2d_24">
      <g>
       <use style="stroke:#000000;stroke-width:0.6;" x="289.069718" xlink:href="#me7f4416dae" y="202.6"/>
      </g>
     </g>
    </g>
    <g id="xtick_25">
     <g id="line2d_25">
      <g>
       <use style="stroke:#000000;stroke-width:0.6;" x="299.85319" xlink:href="#me7f4416dae" y="202.6"/>
      </g>
     </g>
    </g>
    <g id="xtick_26">
     <g id="line2d_26">
      <g>
       <use style="stroke:#000000;stroke-width:0.6;" x="310.636663" xlink:href="#me7f4416dae" y="202.6"/>
      </g>
     </g>
    </g>
    <g id="xtick_27">
     <g id="line2d_27">
      <g>
       <use style="stroke:#000000;stroke-width:0.6;" x="332.203607" xlink:href="#me7f4416dae" y="202.6"/>
      </g>
     </g>
    </g>
    <g id="xtick_28">
     <g id="line2d_28">
      <g>
       <use style="stroke:#000000;stroke-width:0.6;" x="342.98708" xlink:href="#me7f4416dae" y="202.6"/>
      </g>
     </g>
    </g>
   </g>
   <g id="matplotlib.axis_2">
    <g id="ytick_1">
     <g id="line2d_29">
      <defs>
       <path d="M 0 0 
L -3.5 0 
" id="m4554ba2bd5" style="stroke:#000000;stroke-width:0.8;"/>
      </defs>
      <g>
       <use style="stroke:#000000;stroke-width:0.8;" x="50.8" xlink:href="#m4554ba2bd5" y="197.552632"/>
      </g>
     </g>
     <g id="text_8">
      <text style="font-family:DejaVu Sans;font-size:10px;font-stretch:normal;font-style:normal;font-weight:normal;text-anchor:end;" transform="rotate(-0, 43.8, 201.35185)" x="43.8" y="201.35185">100</text>
     </g>
    </g>
    <g id="ytick_2">
     <g id="line2d_30">
      <g>
       <use style="stroke:#000000;stroke-width:0.8;" x="50.8" xlink:href="#m4554ba2bd5" y="172.315789"/>
      </g>
     </g>
     <g id="text_9">
      <text style="font-family:DejaVu Sans;font-size:10px;font-stretch:normal;font-style:normal;font-weight:normal;text-anchor:end;" transform="rotate(-0, 43.8, 176.115008)" x="43.8" y="176.115008">50</text>
     </g>
    </g>
    <g id="ytick_3">
     <g id="line2d_31">
      <g>
       <use style="stroke:#000000;stroke-width:0.8;" x="50.8" xlink:href="#m4554ba2bd5" y="147.078947"/>
      </g>
     </g>
     <g id="text_10">
      <text style="font-family:DejaVu Sans;font-size:10px;font-stretch:normal;font-style:normal;font-weight:normal;text-anchor:end;" transform="rotate(-0, 43.8, 150.878166)" x="43.8" y="150.878166">0</text>
     </g>
    </g>
    <g id="ytick_4">
     <g id="line2d_32">
      <g>
       <use style="stroke:#000000;stroke-width:0.8;" x="50.8" xlink:href="#m4554ba2bd5" y="121.842105"/>
      </g>
     </g>
     <g id="text_11">
      <text style="font-family:DejaVu Sans;font-size:10px;font-stretch:normal;font-style:normal;font-weight:normal;text-anchor:end;" transform="rotate(-0, 43.8, 125.641324)" x="43.8" y="125.641324">50</text>
     </g>
    </g>
    <g id="ytick_5">
     <g id="line2d_33">
      <g>
       <use style="stroke:#000000;stroke-width:0.8;" x="50.8" xlink:href="#m4554ba2bd5" y="96.605263"/>
      </g>
     </g>
     <g id="text_12">
      <text style="font-family:DejaVu Sans;font-size:10px;font-stretch:normal;font-style:normal;font-weight:normal;text-anchor:end;" transform="rotate(-0, 43.8, 100.404482)" x="43.8" y="100.404482">100</text>
     </g>
    </g>
    <g id="ytick_6">
     <g id="line2d_34">
      <g>
       <use style="stroke:#000000;stroke-width:0.8;" x="50.8" xlink:href="#m4554ba2bd5" y="71.368421"/>
      </g>
     </g>
     <g id="text_13">
      <text style="font-family:DejaVu Sans;font-size:10px;font-stretch:normal;font-style:normal;font-weight:normal;text-anchor:end;" transform="rotate(-0, 43.8, 75.16764)" x="43.8" y="75.16764">150</text>
     </g>
    </g>
    <g id="ytick_7">
     <g id="line2d_35">
      <g>
       <use style="stroke:#000000;stroke-width:0.8;" x="50.8" xlink:href="#m4554ba2bd5" y="46.131579"/>
      </g>
     </g>
     <g id="text_14">
      <text style="font-family:DejaVu Sans;font-size:10px;font-stretch:normal;font-style:normal;font-weight:normal;text-anchor:end;" transform="rotate(-0, 43.8, 49.930798)" x="43.8" y="49.930798">200</text>
     </g>
    </g>
    <g id="ytick_8">
     <g id="line2d_36">
      <g>
       <use style="stroke:#000000;stroke-width:0.8;" x="50.8" xlink:href="#m4554ba2bd5" y="20.894737"/>
      </g>
     </g>
     <g id="text_15">
      <text style="font-family:DejaVu Sans;font-size:10px;font-stretch:normal;font-style:normal;font-weight:normal;text-anchor:end;" transform="rotate(-0, 43.8, 24.693956)" x="43.8" y="24.693956">250</text>
     </g>
    </g>
    <g id="ytick_9">
     <g id="line2d_37">
      <defs>
       <path d="M 0 0 
L -2 0 
" id="mb33fb31aec" style="stroke:#000000;stroke-width:0.6;"/>
      </defs>
      <g>
       <use style="stroke:#000000;stroke-width:0.6;" x="50.8" xlink:href="#mb33fb31aec" y="192.505263"/>
      </g>
     </g>
    </g>
    <g id="ytick_10">
     <g id="line2d_38">
      <g>
       <use style="stroke:#000000;stroke-width:0.6;" x="50.8" xlink:href="#mb33fb31aec" y="187.457895"/>
      </g>
     </g>
    </g>
    <g id="ytick_11">
     <g id="line2d_39">
      <g>
       <use style="stroke:#000000;stroke-width:0.6;" x="50.8" xlink:href="#mb33fb31aec" y="182.410526"/>
      </g>
     </g>
    </g>
    <g id="ytick_12">
     <g id="line2d_40">
      <g>
       <use style="stroke:#000000;stroke-width:0.6;" x="50.8" xlink:href="#mb33fb31aec" y="177.363158"/>
      </g>
     </g>
    </g>
    <g id="ytick_13">
     <g id="line2d_41">
      <g>
       <use style="stroke:#000000;stroke-width:0.6;" x="50.8" xlink:href="#mb33fb31aec" y="167.268421"/>
      </g>
     </g>
    </g>
    <g id="ytick_14">
     <g id="line2d_42">
      <g>
       <use style="stroke:#000000;stroke-width:0.6;" x="50.8" xlink:href="#mb33fb31aec" y="162.221053"/>
      </g>
     </g>
    </g>
    <g id="ytick_15">
     <g id="line2d_43">
      <g>
       <use style="stroke:#000000;stroke-width:0.6;" x="50.8" xlink:href="#mb33fb31aec" y="157.173684"/>
      </g>
     </g>
    </g>
    <g id="ytick_16">
     <g id="line2d_44">
      <g>
       <use style="stroke:#000000;stroke-width:0.6;" x="50.8" xlink:href="#mb33fb31aec" y="152.126316"/>
      </g>
     </g>
    </g>
    <g id="ytick_17">
     <g id="line2d_45">
      <g>
       <use style="stroke:#000000;stroke-width:0.6;" x="50.8" xlink:href="#mb33fb31aec" y="142.031579"/>
      </g>
     </g>
    </g>
    <g id="ytick_18">
     <g id="line2d_46">
      <g>
       <use style="stroke:#000000;stroke-width:0.6;" x="50.8" xlink:href="#mb33fb31aec" y="136.984211"/>
      </g>
     </g>
    </g>
    <g id="ytick_19">
     <g id="line2d_47">
      <g>
       <use style="stroke:#000000;stroke-width:0.6;" x="50.8" xlink:href="#mb33fb31aec" y="131.936842"/>
      </g>
     </g>
    </g>
    <g id="ytick_20">
     <g id="line2d_48">
      <g>
       <use style="stroke:#000000;stroke-width:0.6;" x="50.8" xlink:href="#mb33fb31aec" y="126.889474"/>
      </g>
     </g>
    </g>
    <g id="ytick_21">
     <g id="line2d_49">
      <g>
       <use style="stroke:#000000;stroke-width:0.6;" x="50.8" xlink:href="#mb33fb31aec" y="116.794737"/>
      </g>
     </g>
    </g>
    <g id="ytick_22">
     <g id="line2d_50">
      <g>
       <use style="stroke:#000000;stroke-width:0.6;" x="50.8" xlink:href="#mb33fb31aec" y="111.747368"/>
      </g>
     </g>
    </g>
    <g id="ytick_23">
     <g id="line2d_51">
      <g>
       <use style="stroke:#000000;stroke-width:0.6;" x="50.8" xlink:href="#mb33fb31aec" y="106.7"/>
      </g>
     </g>
    </g>
    <g id="ytick_24">
     <g id="line2d_52">
      <g>
       <use style="stroke:#000000;stroke-width:0.6;" x="50.8" xlink:href="#mb33fb31aec" y="101.652632"/>
      </g>
     </g>
    </g>
    <g id="ytick_25">
     <g id="line2d_53">
      <g>
       <use style="stroke:#000000;stroke-width:0.6;" x="50.8" xlink:href="#mb33fb31aec" y="91.557895"/>
      </g>
     </g>
    </g>
    <g id="ytick_26">
     <g id="line2d_54">
      <g>
       <use style="stroke:#000000;stroke-width:0.6;" x="50.8" xlink:href="#mb33fb31aec" y="86.510526"/>
      </g>
     </g>
    </g>
    <g id="ytick_27">
     <g id="line2d_55">
      <g>
       <use style="stroke:#000000;stroke-width:0.6;" x="50.8" xlink:href="#mb33fb31aec" y="81.463158"/>
      </g>
     </g>
    </g>
    <g id="ytick_28">
     <g id="line2d_56">
      <g>
       <use style="stroke:#000000;stroke-width:0.6;" x="50.8" xlink:href="#mb33fb31aec" y="76.415789"/>
      </g>
     </g>
    </g>
    <g id="ytick_29">
     <g id="line2d_57">
      <g>
       <use style="stroke:#000000;stroke-width:0.6;" x="50.8" xlink:href="#mb33fb31aec" y="66.321053"/>
      </g>
     </g>
    </g>
    <g id="ytick_30">
     <g id="line2d_58">
      <g>
       <use style="stroke:#000000;stroke-width:0.6;" x="50.8" xlink:href="#mb33fb31aec" y="61.273684"/>
      </g>
     </g>
    </g>
    <g id="ytick_31">
     <g id="line2d_59">
      <g>
       <use style="stroke:#000000;stroke-width:0.6;" x="50.8" xlink:href="#mb33fb31aec" y="56.226316"/>
      </g>
     </g>
    </g>
    <g id="ytick_32">
     <g id="line2d_60">
      <g>
       <use style="stroke:#000000;stroke-width:0.6;" x="50.8" xlink:href="#mb33fb31aec" y="51.178947"/>
      </g>
     </g>
    </g>
    <g id="ytick_33">
     <g id="line2d_61">
      <g>
       <use style="stroke:#000000;stroke-width:0.6;" x="50.8" xlink:href="#mb33fb31aec" y="41.084211"/>
      </g>
     </g>
    </g>
    <g id="ytick_34">
     <g id="line2d_62">
      <g>
       <use style="stroke:#000000;stroke-width:0.6;" x="50.8" xlink:href="#mb33fb31aec" y="36.036842"/>
      </g>
     </g>
    </g>
    <g id="ytick_35">
     <g id="line2d_63">
      <g>
       <use style="stroke:#000000;stroke-width:0.6;" x="50.8" xlink:href="#mb33fb31aec" y="30.989474"/>
      </g>
     </g>
    </g>
    <g id="ytick_36">
     <g id="line2d_64">
      <g>
       <use style="stroke:#000000;stroke-width:0.6;" x="50.8" xlink:href="#mb33fb31aec" y="25.942105"/>
      </g>
     </g>
    </g>
    <g id="ytick_37">
     <g id="line2d_65">
      <g>
       <use style="stroke:#000000;stroke-width:0.6;" x="50.8" xlink:href="#mb33fb31aec" y="15.847368"/>
      </g>
     </g>
    </g>
    <g id="ytick_38">
     <g id="line2d_66">
      <g>
       <use style="stroke:#000000;stroke-width:0.6;" x="50.8" xlink:href="#mb33fb31aec" y="10.8"/>
      </g>
     </g>
    </g>
    <g id="text_16">
     <text style="font-family:DejaVu Sans;font-size:10px;font-stretch:normal;font-style:normal;font-weight:normal;text-anchor:middle;" transform="rotate(-90, 18.632812, 106.7)" x="18.632812" y="106.7">Accumulated duration [years]</text>
    </g>
   </g>
   <g id="line2d_67">
    <path clip-path="url(#pcf54915caa)" d="M 50.8 147.078947 
L 347.459896 147.078947 
" style="fill:none;stroke:#000000;stroke-linecap:square;"/>
   </g>
   <g id="patch_3">
    <path d="M 50.8 202.6 
L 50.8 10.8 
" style="fill:none;stroke:#000000;stroke-linecap:square;stroke-linejoin:miter;stroke-width:0.8;"/>
   </g>
   <g id="patch_4">
    <path d="M 50.8 202.6 
L 347.459896 202.6 
" style="fill:none;stroke:#000000;stroke-linecap:square;stroke-linejoin:miter;stroke-width:0.8;"/>
   </g>
   <g id="text_17">
    <text style="font-family:DejaVu Sans;font-size:10.5px;font-stretch:normal;font-style:normal;font-weight:semibold;" transform="translate(59.699797 104.532297)">Northern</text>
    <text style="font-family:DejaVu Sans;font-size:10.5px;font-stretch:normal;font-style:normal;font-weight:semibold;" transform="translate(59.699797 116.29)">Hemisphere</text>
   </g>
   <g id="text_18">
    <text style="font-family:DejaVu Sans;font-size:10.5px;font-stretch:normal;font-style:normal;font-weight:semibold;" transform="translate(59.699797 175.498297)">Southern</text>
    <text style="font-family:DejaVu Sans;font-size:10.5px;font-stretch:normal;font-style:normal;font-weight:semibold;" transform="translate(59.699797 187.256)">Hemisphere</text>
   </g>
   <g id="text_19">
    <text style="fill:#808080;font-family:DejaVu Sans;font-size:10.5px;font-stretch:normal;font-style:normal;font-weight:semibold;text-anchor:start;" transform="rotate(-0, 302.52507, 46.131579)" x="302.52507" y="46.131579">Polar</text>
   </g>
   <g id="text_20">
    <text style="fill:#3cb371;font-family:DejaVu Sans;font-size:10.5px;font-stretch:normal;font-style:normal;font-weight:semibold;text-anchor:start;" transform="rotate(-0, 302.52507, 101.652632)" x="302.52507" y="101.652632">Mid-lat</text>
   </g>
   <g id="text_21">
    <text style="fill:#8b4513;font-family:DejaVu Sans;font-size:10.5px;font-stretch:normal;font-style:normal;font-weight:semibold;text-anchor:start;" transform="rotate(-0, 302.52507, 143.545789)" x="302.52507" y="143.545789">Low-lat</text>
   </g>
   <g id="text_22">
    <text style="fill:#ff8c00;font-family:DejaVu Sans;font-size:10.5px;font-stretch:normal;font-style:normal;font-weight:semibold;text-anchor:start;" transform="rotate(-0, 302.52507, 160.706842)" x="302.52507" y="160.706842">Low-lat</text>
   </g>
   <g id="text_23">
    <text style="fill:#3cb371;font-family:DejaVu Sans;font-size:10.5px;font-stretch:normal;font-style:normal;font-weight:semibold;text-anchor:start;" transform="rotate(-0, 302.52507, 174.839474)" x="302.52507" y="174.839474">Mid-lat</text>
   </g>
  </g>
 </g>
 <defs>
  <clipPath id="pcf54915caa">
   <rect height="191.8" width="296.659896" x="50.8" y="10.8"/>
  </clipPath>
 </defs>
</svg>
